# Tiled2Unity generated file. Do not modify by hand.
# Wavefront file for 'House_mesh_0003.obj'

# Vertices (Count = 92)
v -9 -2 0
v -10 -2 0
v -10 -1 0
v -9 -1 0
v -8 -2 0
v -9 -2 0
v -9 -1 0
v -8 -1 0
v -3 -2 0
v -4 -2 0
v -4 -1 0
v -3 -1 0
v -3 -3 0
v -4 -3 0
v -4 -2 0
v -3 -2 0
v -2 -5 0
v -3 -5 0
v -3 -4 0
v -2 -4 0
v -17 -6 0
v -18 -6 0
v -18 -5 0
v -17 -5 0
v -11 -6 0
v -12 -6 0
v -12 -5 0
v -11 -5 0
v -10 -6 0
v -11 -6 0
v -11 -5 0
v -10 -5 0
v -9 -6 0
v -10 -6 0
v -10 -5 0
v -9 -5 0
v -8 -6 0
v -9 -6 0
v -9 -5 0
v -8 -5 0
v -11 -7 0
v -12 -7 0
v -12 -6 0
v -11 -6 0
v -10 -7 0
v -11 -7 0
v -11 -6 0
v -10 -6 0
v -9 -7 0
v -10 -7 0
v -10 -6 0
v -9 -6 0
v -8 -7 0
v -9 -7 0
v -9 -6 0
v -8 -6 0
v -7 -7 0
v -8 -7 0
v -8 -6 0
v -7 -6 0
v -6 -7 0
v -7 -7 0
v -7 -6 0
v -6 -6 0
v -17 -8 0
v -18 -8 0
v -18 -7 0
v -17 -7 0
v -11 -8 0
v -12 -8 0
v -12 -7 0
v -11 -7 0
v -10 -8 0
v -11 -8 0
v -11 -7 0
v -10 -7 0
v -9 -8 0
v -10 -8 0
v -10 -7 0
v -9 -7 0
v -8 -8 0
v -9 -8 0
v -9 -7 0
v -8 -7 0
v -17 -10 0
v -18 -10 0
v -18 -9 0
v -17 -9 0
v -17 -12 0
v -18 -12 0
v -18 -11 0
v -17 -11 0

# Texture cooridinates (Count = 52)
vt 0.2283058 0.9695817
vt 0.2448347 0.9695817
vt 0.2448347 1
vt 0.2283058 1
vt 0.4917355 0.8726236
vt 0.5082645 0.8726236
vt 0.5082645 0.9030418
vt 0.4917355 0.9030418
vt 0.4917355 0.8403042
vt 0.5082645 0.8403042
vt 0.5082645 0.8707224
vt 0.4917355 0.8707224
vt 0.5092975 0.9695817
vt 0.5258265 0.9695817
vt 0.5258265 1
vt 0.5092975 1
vt 0.2107438 0.9372624
vt 0.2272727 0.9372624
vt 0.2272727 0.9676806
vt 0.2107438 0.9676806
vt 0.3336777 0.8403042
vt 0.3502066 0.8403042
vt 0.3502066 0.8707224
vt 0.3336777 0.8707224
vt 0.2283058 0.7756654
vt 0.2448347 0.7756654
vt 0.2448347 0.8060837
vt 0.2283058 0.8060837
vt 0.1931818 0.8403042
vt 0.2097107 0.8403042
vt 0.2097107 0.8707224
vt 0.1931818 0.8707224
vt 0.2107438 0.8403042
vt 0.2272727 0.8403042
vt 0.2272727 0.8707224
vt 0.2107438 0.8707224
vt 0.1931818 0.8079848
vt 0.2097107 0.8079848
vt 0.2097107 0.838403
vt 0.1931818 0.838403
vt 0.7024794 0.6463878
vt 0.7190083 0.6463878
vt 0.7190083 0.6768061
vt 0.7024794 0.6768061
vt 0.6849173 0.6463878
vt 0.7014463 0.6463878
vt 0.7014463 0.6768061
vt 0.6849173 0.6768061
vt 0.3336777 0.8079848
vt 0.3502066 0.8079848
vt 0.3502066 0.838403
vt 0.3336777 0.838403

# Normal
vn 0 0 -1

# Mesh description
g House_mesh_0003

# Faces
f 1/1/1 2/2/1 3/3/1 4/4/1
f 5/1/1 6/2/1 7/3/1 8/4/1
f 9/5/1 10/6/1 11/7/1 12/8/1
f 13/9/1 14/10/1 15/11/1 16/12/1
f 17/13/1 18/14/1 19/15/1 20/16/1
f 21/17/1 22/18/1 23/19/1 24/20/1
f 25/21/1 26/22/1 27/23/1 28/24/1
f 29/21/1 30/22/1 31/23/1 32/24/1
f 33/21/1 34/22/1 35/23/1 36/24/1
f 37/21/1 38/22/1 39/23/1 40/24/1
f 41/25/1 42/26/1 43/27/1 44/28/1
f 45/29/1 46/30/1 47/31/1 48/32/1
f 49/33/1 50/34/1 51/35/1 52/36/1
f 53/37/1 54/38/1 55/39/1 56/40/1
f 57/41/1 58/42/1 59/43/1 60/44/1
f 61/45/1 62/46/1 63/47/1 64/48/1
f 65/17/1 66/18/1 67/19/1 68/20/1
f 69/49/1 70/50/1 71/51/1 72/52/1
f 73/49/1 74/50/1 75/51/1 76/52/1
f 77/49/1 78/50/1 79/51/1 80/52/1
f 81/49/1 82/50/1 83/51/1 84/52/1
f 85/17/1 86/18/1 87/19/1 88/20/1
f 89/17/1 90/18/1 91/19/1 92/20/1

