# Tiled2Unity generated file. Do not modify by hand.
# Wavefront file for 'Sand_mesh_0007.obj'

# Vertices (Count = 16)
v -41 -61 0
v -42 -61 0
v -42 -60 0
v -41 -60 0
v -16 -67 0
v -17 -67 0
v -17 -66 0
v -16 -66 0
v -16 -69 0
v -17 -69 0
v -17 -68 0
v -16 -68 0
v -15 -69 0
v -16 -69 0
v -16 -68 0
v -15 -68 0

# Texture cooridinates (Count = 16)
vt 0.5795454 0.8403042
vt 0.5960744 0.8403042
vt 0.5960744 0.8707224
vt 0.5795454 0.8707224
vt 0.7376033 0.9695817
vt 0.7541322 0.9695817
vt 0.7541322 1
vt 0.7376033 1
vt 0.5092975 0.7756654
vt 0.5258265 0.7756654
vt 0.5258265 0.8060837
vt 0.5092975 0.8060837
vt 0.4917355 0.7756654
vt 0.5082645 0.7756654
vt 0.5082645 0.8060837
vt 0.4917355 0.8060837

# Normal
vn 0 0 -1

# Mesh description
g Sand_mesh_0007

# Faces
f 1/1/1 2/2/1 3/3/1 4/4/1
f 5/5/1 6/6/1 7/7/1 8/8/1
f 9/9/1 10/10/1 11/11/1 12/12/1
f 13/13/1 14/14/1 15/15/1 16/16/1

