# Tiled2Unity generated file. Do not modify by hand.
# Wavefront file for 'Sand_mesh_0002.obj'

# Vertices (Count = 1092)
v -81 -13 0
v -82 -13 0
v -82 -12 0
v -81 -12 0
v -80 -13 0
v -81 -13 0
v -81 -12 0
v -80 -12 0
v -79 -13 0
v -80 -13 0
v -80 -12 0
v -79 -12 0
v -78 -13 0
v -79 -13 0
v -79 -12 0
v -78 -12 0
v -77 -13 0
v -78 -13 0
v -78 -12 0
v -77 -12 0
v -76 -13 0
v -77 -13 0
v -77 -12 0
v -76 -12 0
v -75 -13 0
v -76 -13 0
v -76 -12 0
v -75 -12 0
v -74 -13 0
v -75 -13 0
v -75 -12 0
v -74 -12 0
v -73 -13 0
v -74 -13 0
v -74 -12 0
v -73 -12 0
v -72 -13 0
v -73 -13 0
v -73 -12 0
v -72 -12 0
v -71 -13 0
v -72 -13 0
v -72 -12 0
v -71 -12 0
v -70 -13 0
v -71 -13 0
v -71 -12 0
v -70 -12 0
v -69 -13 0
v -70 -13 0
v -70 -12 0
v -69 -12 0
v -68 -13 0
v -69 -13 0
v -69 -12 0
v -68 -12 0
v -67 -13 0
v -68 -13 0
v -68 -12 0
v -67 -12 0
v -66 -13 0
v -67 -13 0
v -67 -12 0
v -66 -12 0
v -65 -13 0
v -66 -13 0
v -66 -12 0
v -65 -12 0
v -64 -13 0
v -65 -13 0
v -65 -12 0
v -64 -12 0
v -63 -13 0
v -64 -13 0
v -64 -12 0
v -63 -12 0
v -62 -13 0
v -63 -13 0
v -63 -12 0
v -62 -12 0
v -61 -13 0
v -62 -13 0
v -62 -12 0
v -61 -12 0
v -60 -13 0
v -61 -13 0
v -61 -12 0
v -60 -12 0
v -59 -13 0
v -60 -13 0
v -60 -12 0
v -59 -12 0
v -58 -13 0
v -59 -13 0
v -59 -12 0
v -58 -12 0
v -57 -13 0
v -58 -13 0
v -58 -12 0
v -57 -12 0
v -56 -13 0
v -57 -13 0
v -57 -12 0
v -56 -12 0
v -55 -13 0
v -56 -13 0
v -56 -12 0
v -55 -12 0
v -54 -13 0
v -55 -13 0
v -55 -12 0
v -54 -12 0
v -53 -13 0
v -54 -13 0
v -54 -12 0
v -53 -12 0
v -52 -13 0
v -53 -13 0
v -53 -12 0
v -52 -12 0
v -51 -13 0
v -52 -13 0
v -52 -12 0
v -51 -12 0
v -50 -13 0
v -51 -13 0
v -51 -12 0
v -50 -12 0
v -49 -13 0
v -50 -13 0
v -50 -12 0
v -49 -12 0
v -48 -13 0
v -49 -13 0
v -49 -12 0
v -48 -12 0
v -47 -13 0
v -48 -13 0
v -48 -12 0
v -47 -12 0
v -46 -13 0
v -47 -13 0
v -47 -12 0
v -46 -12 0
v -45 -13 0
v -46 -13 0
v -46 -12 0
v -45 -12 0
v -44 -13 0
v -45 -13 0
v -45 -12 0
v -44 -12 0
v -43 -13 0
v -44 -13 0
v -44 -12 0
v -43 -12 0
v -42 -13 0
v -43 -13 0
v -43 -12 0
v -42 -12 0
v -41 -13 0
v -42 -13 0
v -42 -12 0
v -41 -12 0
v -40 -13 0
v -41 -13 0
v -41 -12 0
v -40 -12 0
v -39 -13 0
v -40 -13 0
v -40 -12 0
v -39 -12 0
v -38 -13 0
v -39 -13 0
v -39 -12 0
v -38 -12 0
v -37 -13 0
v -38 -13 0
v -38 -12 0
v -37 -12 0
v -36 -13 0
v -37 -13 0
v -37 -12 0
v -36 -12 0
v -35 -13 0
v -36 -13 0
v -36 -12 0
v -35 -12 0
v -34 -13 0
v -35 -13 0
v -35 -12 0
v -34 -12 0
v -33 -13 0
v -34 -13 0
v -34 -12 0
v -33 -12 0
v -32 -13 0
v -33 -13 0
v -33 -12 0
v -32 -12 0
v -31 -13 0
v -32 -13 0
v -32 -12 0
v -31 -12 0
v -30 -13 0
v -31 -13 0
v -31 -12 0
v -30 -12 0
v -29 -13 0
v -30 -13 0
v -30 -12 0
v -29 -12 0
v -28 -13 0
v -29 -13 0
v -29 -12 0
v -28 -12 0
v -27 -13 0
v -28 -13 0
v -28 -12 0
v -27 -12 0
v -26 -13 0
v -27 -13 0
v -27 -12 0
v -26 -12 0
v -25 -13 0
v -26 -13 0
v -26 -12 0
v -25 -12 0
v -24 -13 0
v -25 -13 0
v -25 -12 0
v -24 -12 0
v -23 -13 0
v -24 -13 0
v -24 -12 0
v -23 -12 0
v -22 -13 0
v -23 -13 0
v -23 -12 0
v -22 -12 0
v -21 -13 0
v -22 -13 0
v -22 -12 0
v -21 -12 0
v -20 -13 0
v -21 -13 0
v -21 -12 0
v -20 -12 0
v -81 -14 0
v -82 -14 0
v -82 -13 0
v -81 -13 0
v -20 -14 0
v -21 -14 0
v -21 -13 0
v -20 -13 0
v -81 -15 0
v -82 -15 0
v -82 -14 0
v -81 -14 0
v -20 -15 0
v -21 -15 0
v -21 -14 0
v -20 -14 0
v -81 -16 0
v -82 -16 0
v -82 -15 0
v -81 -15 0
v -20 -16 0
v -21 -16 0
v -21 -15 0
v -20 -15 0
v -81 -17 0
v -82 -17 0
v -82 -16 0
v -81 -16 0
v -20 -17 0
v -21 -17 0
v -21 -16 0
v -20 -16 0
v -81 -18 0
v -82 -18 0
v -82 -17 0
v -81 -17 0
v -20 -18 0
v -21 -18 0
v -21 -17 0
v -20 -17 0
v -81 -19 0
v -82 -19 0
v -82 -18 0
v -81 -18 0
v -20 -19 0
v -21 -19 0
v -21 -18 0
v -20 -18 0
v -81 -20 0
v -82 -20 0
v -82 -19 0
v -81 -19 0
v -20 -20 0
v -21 -20 0
v -21 -19 0
v -20 -19 0
v -81 -21 0
v -82 -21 0
v -82 -20 0
v -81 -20 0
v -20 -21 0
v -21 -21 0
v -21 -20 0
v -20 -20 0
v -81 -22 0
v -82 -22 0
v -82 -21 0
v -81 -21 0
v -20 -22 0
v -21 -22 0
v -21 -21 0
v -20 -21 0
v -81 -23 0
v -82 -23 0
v -82 -22 0
v -81 -22 0
v -20 -23 0
v -21 -23 0
v -21 -22 0
v -20 -22 0
v -81 -24 0
v -82 -24 0
v -82 -23 0
v -81 -23 0
v -20 -24 0
v -21 -24 0
v -21 -23 0
v -20 -23 0
v -81 -25 0
v -82 -25 0
v -82 -24 0
v -81 -24 0
v -20 -25 0
v -21 -25 0
v -21 -24 0
v -20 -24 0
v -81 -26 0
v -82 -26 0
v -82 -25 0
v -81 -25 0
v -20 -26 0
v -21 -26 0
v -21 -25 0
v -20 -25 0
v -81 -27 0
v -82 -27 0
v -82 -26 0
v -81 -26 0
v -20 -27 0
v -21 -27 0
v -21 -26 0
v -20 -26 0
v -81 -28 0
v -82 -28 0
v -82 -27 0
v -81 -27 0
v -20 -28 0
v -21 -28 0
v -21 -27 0
v -20 -27 0
v -81 -29 0
v -82 -29 0
v -82 -28 0
v -81 -28 0
v -20 -29 0
v -21 -29 0
v -21 -28 0
v -20 -28 0
v -81 -30 0
v -82 -30 0
v -82 -29 0
v -81 -29 0
v -20 -30 0
v -21 -30 0
v -21 -29 0
v -20 -29 0
v -81 -31 0
v -82 -31 0
v -82 -30 0
v -81 -30 0
v -20 -31 0
v -21 -31 0
v -21 -30 0
v -20 -30 0
v -81 -32 0
v -82 -32 0
v -82 -31 0
v -81 -31 0
v -20 -32 0
v -21 -32 0
v -21 -31 0
v -20 -31 0
v -81 -33 0
v -82 -33 0
v -82 -32 0
v -81 -32 0
v -20 -33 0
v -21 -33 0
v -21 -32 0
v -20 -32 0
v -81 -34 0
v -82 -34 0
v -82 -33 0
v -81 -33 0
v -20 -34 0
v -21 -34 0
v -21 -33 0
v -20 -33 0
v -81 -35 0
v -82 -35 0
v -82 -34 0
v -81 -34 0
v -20 -35 0
v -21 -35 0
v -21 -34 0
v -20 -34 0
v -81 -36 0
v -82 -36 0
v -82 -35 0
v -81 -35 0
v -20 -36 0
v -21 -36 0
v -21 -35 0
v -20 -35 0
v -81 -37 0
v -82 -37 0
v -82 -36 0
v -81 -36 0
v -20 -37 0
v -21 -37 0
v -21 -36 0
v -20 -36 0
v -81 -38 0
v -82 -38 0
v -82 -37 0
v -81 -37 0
v -20 -38 0
v -21 -38 0
v -21 -37 0
v -20 -37 0
v -81 -39 0
v -82 -39 0
v -82 -38 0
v -81 -38 0
v -20 -39 0
v -21 -39 0
v -21 -38 0
v -20 -38 0
v -81 -40 0
v -82 -40 0
v -82 -39 0
v -81 -39 0
v -20 -40 0
v -21 -40 0
v -21 -39 0
v -20 -39 0
v -81 -41 0
v -82 -41 0
v -82 -40 0
v -81 -40 0
v -20 -41 0
v -21 -41 0
v -21 -40 0
v -20 -40 0
v -81 -42 0
v -82 -42 0
v -82 -41 0
v -81 -41 0
v -20 -42 0
v -21 -42 0
v -21 -41 0
v -20 -41 0
v -81 -43 0
v -82 -43 0
v -82 -42 0
v -81 -42 0
v -20 -43 0
v -21 -43 0
v -21 -42 0
v -20 -42 0
v -81 -44 0
v -82 -44 0
v -82 -43 0
v -81 -43 0
v -20 -44 0
v -21 -44 0
v -21 -43 0
v -20 -43 0
v -81 -45 0
v -82 -45 0
v -82 -44 0
v -81 -44 0
v -20 -45 0
v -21 -45 0
v -21 -44 0
v -20 -44 0
v -81 -46 0
v -82 -46 0
v -82 -45 0
v -81 -45 0
v -20 -46 0
v -21 -46 0
v -21 -45 0
v -20 -45 0
v -81 -47 0
v -82 -47 0
v -82 -46 0
v -81 -46 0
v -20 -47 0
v -21 -47 0
v -21 -46 0
v -20 -46 0
v -81 -48 0
v -82 -48 0
v -82 -47 0
v -81 -47 0
v -20 -48 0
v -21 -48 0
v -21 -47 0
v -20 -47 0
v -81 -49 0
v -82 -49 0
v -82 -48 0
v -81 -48 0
v -20 -49 0
v -21 -49 0
v -21 -48 0
v -20 -48 0
v -81 -50 0
v -82 -50 0
v -82 -49 0
v -81 -49 0
v -20 -50 0
v -21 -50 0
v -21 -49 0
v -20 -49 0
v -81 -51 0
v -82 -51 0
v -82 -50 0
v -81 -50 0
v -20 -51 0
v -21 -51 0
v -21 -50 0
v -20 -50 0
v -81 -52 0
v -82 -52 0
v -82 -51 0
v -81 -51 0
v -20 -52 0
v -21 -52 0
v -21 -51 0
v -20 -51 0
v -81 -53 0
v -82 -53 0
v -82 -52 0
v -81 -52 0
v -20 -53 0
v -21 -53 0
v -21 -52 0
v -20 -52 0
v -81 -54 0
v -82 -54 0
v -82 -53 0
v -81 -53 0
v -20 -54 0
v -21 -54 0
v -21 -53 0
v -20 -53 0
v -81 -55 0
v -82 -55 0
v -82 -54 0
v -81 -54 0
v -20 -55 0
v -21 -55 0
v -21 -54 0
v -20 -54 0
v -81 -56 0
v -82 -56 0
v -82 -55 0
v -81 -55 0
v -20 -56 0
v -21 -56 0
v -21 -55 0
v -20 -55 0
v -81 -57 0
v -82 -57 0
v -82 -56 0
v -81 -56 0
v -20 -57 0
v -21 -57 0
v -21 -56 0
v -20 -56 0
v -81 -58 0
v -82 -58 0
v -82 -57 0
v -81 -57 0
v -20 -58 0
v -21 -58 0
v -21 -57 0
v -20 -57 0
v -81 -59 0
v -82 -59 0
v -82 -58 0
v -81 -58 0
v -20 -59 0
v -21 -59 0
v -21 -58 0
v -20 -58 0
v -81 -60 0
v -82 -60 0
v -82 -59 0
v -81 -59 0
v -20 -60 0
v -21 -60 0
v -21 -59 0
v -20 -59 0
v -81 -61 0
v -82 -61 0
v -82 -60 0
v -81 -60 0
v -20 -61 0
v -21 -61 0
v -21 -60 0
v -20 -60 0
v -81 -62 0
v -82 -62 0
v -82 -61 0
v -81 -61 0
v -20 -62 0
v -21 -62 0
v -21 -61 0
v -20 -61 0
v -81 -63 0
v -82 -63 0
v -82 -62 0
v -81 -62 0
v -20 -63 0
v -21 -63 0
v -21 -62 0
v -20 -62 0
v -81 -64 0
v -82 -64 0
v -82 -63 0
v -81 -63 0
v -20 -64 0
v -21 -64 0
v -21 -63 0
v -20 -63 0
v -81 -65 0
v -82 -65 0
v -82 -64 0
v -81 -64 0
v -20 -65 0
v -21 -65 0
v -21 -64 0
v -20 -64 0
v -81 -66 0
v -82 -66 0
v -82 -65 0
v -81 -65 0
v -20 -66 0
v -21 -66 0
v -21 -65 0
v -20 -65 0
v -81 -67 0
v -82 -67 0
v -82 -66 0
v -81 -66 0
v -20 -67 0
v -21 -67 0
v -21 -66 0
v -20 -66 0
v -81 -68 0
v -82 -68 0
v -82 -67 0
v -81 -67 0
v -20 -68 0
v -21 -68 0
v -21 -67 0
v -20 -67 0
v -81 -69 0
v -82 -69 0
v -82 -68 0
v -81 -68 0
v -20 -69 0
v -21 -69 0
v -21 -68 0
v -20 -68 0
v -81 -70 0
v -82 -70 0
v -82 -69 0
v -81 -69 0
v -20 -70 0
v -21 -70 0
v -21 -69 0
v -20 -69 0
v -81 -71 0
v -82 -71 0
v -82 -70 0
v -81 -70 0
v -20 -71 0
v -21 -71 0
v -21 -70 0
v -20 -70 0
v -81 -72 0
v -82 -72 0
v -82 -71 0
v -81 -71 0
v -20 -72 0
v -21 -72 0
v -21 -71 0
v -20 -71 0
v -81 -73 0
v -82 -73 0
v -82 -72 0
v -81 -72 0
v -20 -73 0
v -21 -73 0
v -21 -72 0
v -20 -72 0
v -81 -74 0
v -82 -74 0
v -82 -73 0
v -81 -73 0
v -20 -74 0
v -21 -74 0
v -21 -73 0
v -20 -73 0
v -81 -75 0
v -82 -75 0
v -82 -74 0
v -81 -74 0
v -20 -75 0
v -21 -75 0
v -21 -74 0
v -20 -74 0
v -81 -76 0
v -82 -76 0
v -82 -75 0
v -81 -75 0
v -20 -76 0
v -21 -76 0
v -21 -75 0
v -20 -75 0
v -81 -77 0
v -82 -77 0
v -82 -76 0
v -81 -76 0
v -20 -77 0
v -21 -77 0
v -21 -76 0
v -20 -76 0
v -81 -78 0
v -82 -78 0
v -82 -77 0
v -81 -77 0
v -20 -78 0
v -21 -78 0
v -21 -77 0
v -20 -77 0
v -81 -79 0
v -82 -79 0
v -82 -78 0
v -81 -78 0
v -20 -79 0
v -21 -79 0
v -21 -78 0
v -20 -78 0
v -81 -80 0
v -82 -80 0
v -82 -79 0
v -81 -79 0
v -20 -80 0
v -21 -80 0
v -21 -79 0
v -20 -79 0
v -81 -81 0
v -82 -81 0
v -82 -80 0
v -81 -80 0
v -20 -81 0
v -21 -81 0
v -21 -80 0
v -20 -80 0
v -81 -82 0
v -82 -82 0
v -82 -81 0
v -81 -81 0
v -20 -82 0
v -21 -82 0
v -21 -81 0
v -20 -81 0
v -81 -83 0
v -82 -83 0
v -82 -82 0
v -81 -82 0
v -20 -83 0
v -21 -83 0
v -21 -82 0
v -20 -82 0
v -81 -84 0
v -82 -84 0
v -82 -83 0
v -81 -83 0
v -20 -84 0
v -21 -84 0
v -21 -83 0
v -20 -83 0
v -81 -85 0
v -82 -85 0
v -82 -84 0
v -81 -84 0
v -80 -85 0
v -81 -85 0
v -81 -84 0
v -80 -84 0
v -79 -85 0
v -80 -85 0
v -80 -84 0
v -79 -84 0
v -78 -85 0
v -79 -85 0
v -79 -84 0
v -78 -84 0
v -77 -85 0
v -78 -85 0
v -78 -84 0
v -77 -84 0
v -76 -85 0
v -77 -85 0
v -77 -84 0
v -76 -84 0
v -75 -85 0
v -76 -85 0
v -76 -84 0
v -75 -84 0
v -74 -85 0
v -75 -85 0
v -75 -84 0
v -74 -84 0
v -73 -85 0
v -74 -85 0
v -74 -84 0
v -73 -84 0
v -72 -85 0
v -73 -85 0
v -73 -84 0
v -72 -84 0
v -71 -85 0
v -72 -85 0
v -72 -84 0
v -71 -84 0
v -70 -85 0
v -71 -85 0
v -71 -84 0
v -70 -84 0
v -69 -85 0
v -70 -85 0
v -70 -84 0
v -69 -84 0
v -68 -85 0
v -69 -85 0
v -69 -84 0
v -68 -84 0
v -67 -85 0
v -68 -85 0
v -68 -84 0
v -67 -84 0
v -66 -85 0
v -67 -85 0
v -67 -84 0
v -66 -84 0
v -65 -85 0
v -66 -85 0
v -66 -84 0
v -65 -84 0
v -64 -85 0
v -65 -85 0
v -65 -84 0
v -64 -84 0
v -63 -85 0
v -64 -85 0
v -64 -84 0
v -63 -84 0
v -62 -85 0
v -63 -85 0
v -63 -84 0
v -62 -84 0
v -61 -85 0
v -62 -85 0
v -62 -84 0
v -61 -84 0
v -60 -85 0
v -61 -85 0
v -61 -84 0
v -60 -84 0
v -59 -85 0
v -60 -85 0
v -60 -84 0
v -59 -84 0
v -58 -85 0
v -59 -85 0
v -59 -84 0
v -58 -84 0
v -57 -85 0
v -58 -85 0
v -58 -84 0
v -57 -84 0
v -56 -85 0
v -57 -85 0
v -57 -84 0
v -56 -84 0
v -55 -85 0
v -56 -85 0
v -56 -84 0
v -55 -84 0
v -54 -85 0
v -55 -85 0
v -55 -84 0
v -54 -84 0
v -53 -85 0
v -54 -85 0
v -54 -84 0
v -53 -84 0
v -52 -85 0
v -53 -85 0
v -53 -84 0
v -52 -84 0
v -51 -85 0
v -52 -85 0
v -52 -84 0
v -51 -84 0
v -50 -85 0
v -51 -85 0
v -51 -84 0
v -50 -84 0
v -49 -85 0
v -50 -85 0
v -50 -84 0
v -49 -84 0
v -48 -85 0
v -49 -85 0
v -49 -84 0
v -48 -84 0
v -47 -85 0
v -48 -85 0
v -48 -84 0
v -47 -84 0
v -46 -85 0
v -47 -85 0
v -47 -84 0
v -46 -84 0
v -45 -85 0
v -46 -85 0
v -46 -84 0
v -45 -84 0
v -44 -85 0
v -45 -85 0
v -45 -84 0
v -44 -84 0
v -43 -85 0
v -44 -85 0
v -44 -84 0
v -43 -84 0
v -39 -85 0
v -40 -85 0
v -40 -84 0
v -39 -84 0
v -38 -85 0
v -39 -85 0
v -39 -84 0
v -38 -84 0
v -37 -85 0
v -38 -85 0
v -38 -84 0
v -37 -84 0
v -36 -85 0
v -37 -85 0
v -37 -84 0
v -36 -84 0
v -35 -85 0
v -36 -85 0
v -36 -84 0
v -35 -84 0
v -34 -85 0
v -35 -85 0
v -35 -84 0
v -34 -84 0
v -33 -85 0
v -34 -85 0
v -34 -84 0
v -33 -84 0
v -32 -85 0
v -33 -85 0
v -33 -84 0
v -32 -84 0
v -31 -85 0
v -32 -85 0
v -32 -84 0
v -31 -84 0
v -30 -85 0
v -31 -85 0
v -31 -84 0
v -30 -84 0
v -29 -85 0
v -30 -85 0
v -30 -84 0
v -29 -84 0
v -28 -85 0
v -29 -85 0
v -29 -84 0
v -28 -84 0
v -27 -85 0
v -28 -85 0
v -28 -84 0
v -27 -84 0
v -26 -85 0
v -27 -85 0
v -27 -84 0
v -26 -84 0
v -25 -85 0
v -26 -85 0
v -26 -84 0
v -25 -84 0
v -24 -85 0
v -25 -85 0
v -25 -84 0
v -24 -84 0
v -23 -85 0
v -24 -85 0
v -24 -84 0
v -23 -84 0
v -22 -85 0
v -23 -85 0
v -23 -84 0
v -22 -84 0
v -21 -85 0
v -22 -85 0
v -22 -84 0
v -21 -84 0
v -20 -85 0
v -21 -85 0
v -21 -84 0
v -20 -84 0
v -43 -86 0
v -44 -86 0
v -44 -85 0
v -43 -85 0
v -39 -86 0
v -40 -86 0
v -40 -85 0
v -39 -85 0
v -43 -87 0
v -44 -87 0
v -44 -86 0
v -43 -86 0
v -39 -87 0
v -40 -87 0
v -40 -86 0
v -39 -86 0
v -43 -88 0
v -44 -88 0
v -44 -87 0
v -43 -87 0
v -39 -88 0
v -40 -88 0
v -40 -87 0
v -39 -87 0
v -43 -89 0
v -44 -89 0
v -44 -88 0
v -43 -88 0
v -39 -89 0
v -40 -89 0
v -40 -88 0
v -39 -88 0
v -43 -90 0
v -44 -90 0
v -44 -89 0
v -43 -89 0
v -39 -90 0
v -40 -90 0
v -40 -89 0
v -39 -89 0

# Texture cooridinates (Count = 48)
vt 0.9483471 0.2585551
vt 0.9648761 0.2585551
vt 0.9648761 0.2889734
vt 0.9483471 0.2889734
vt 0.9483471 0.3555133
vt 0.9648761 0.3555133
vt 0.9648761 0.3859316
vt 0.9483471 0.3859316
vt 0.9659091 0.3231939
vt 0.982438 0.3231939
vt 0.982438 0.3536122
vt 0.9659091 0.3536122
vt 0.9834711 0.3231939
vt 1 0.3231939
vt 1 0.3536122
vt 0.9834711 0.3536122
vt 0.9483471 0.3231939
vt 0.9648761 0.3231939
vt 0.9648761 0.3536122
vt 0.9483471 0.3536122
vt 0.9659091 0.3555133
vt 0.982438 0.3555133
vt 0.982438 0.3859316
vt 0.9659091 0.3859316
vt 0.9834711 0.3555133
vt 1 0.3555133
vt 1 0.3859316
vt 0.9834711 0.3859316
vt 0.9483471 0.2908745
vt 0.9648761 0.2908745
vt 0.9648761 0.3212928
vt 0.9483471 0.3212928
vt 0.9834711 0.2585551
vt 1 0.2585551
vt 1 0.2889734
vt 0.9834711 0.2889734
vt 0.9834711 0.2908745
vt 1 0.2908745
vt 1 0.3212928
vt 0.9834711 0.3212928
vt 0.9659091 0.2585551
vt 0.982438 0.2585551
vt 0.982438 0.2889734
vt 0.9659091 0.2889734
vt 0.9659091 0.2908745
vt 0.982438 0.2908745
vt 0.982438 0.3212928
vt 0.9659091 0.3212928

# Normal
vn 0 0 -1

# Mesh description
g Sand_mesh_0002

# Faces
f 1/1/1 2/2/1 3/3/1 4/4/1
f 5/5/1 6/6/1 7/7/1 8/8/1
f 9/9/1 10/10/1 11/11/1 12/12/1
f 13/13/1 14/14/1 15/15/1 16/16/1
f 17/17/1 18/18/1 19/19/1 20/20/1
f 21/21/1 22/22/1 23/23/1 24/24/1
f 25/25/1 26/26/1 27/27/1 28/28/1
f 29/29/1 30/30/1 31/31/1 32/32/1
f 33/9/1 34/10/1 35/11/1 36/12/1
f 37/5/1 38/6/1 39/7/1 40/8/1
f 41/29/1 42/30/1 43/31/1 44/32/1
f 45/25/1 46/26/1 47/27/1 48/28/1
f 49/29/1 50/30/1 51/31/1 52/32/1
f 53/17/1 54/18/1 55/19/1 56/20/1
f 57/5/1 58/6/1 59/7/1 60/8/1
f 61/21/1 62/22/1 63/23/1 64/24/1
f 65/33/1 66/34/1 67/35/1 68/36/1
f 69/33/1 70/34/1 71/35/1 72/36/1
f 73/37/1 74/38/1 75/39/1 76/40/1
f 77/5/1 78/6/1 79/7/1 80/8/1
f 81/33/1 82/34/1 83/35/1 84/36/1
f 85/37/1 86/38/1 87/39/1 88/40/1
f 89/5/1 90/6/1 91/7/1 92/8/1
f 93/33/1 94/34/1 95/35/1 96/36/1
f 97/5/1 98/6/1 99/7/1 100/8/1
f 101/41/1 102/42/1 103/43/1 104/44/1
f 105/29/1 106/30/1 107/31/1 108/32/1
f 109/5/1 110/6/1 111/7/1 112/8/1
f 113/13/1 114/14/1 115/15/1 116/16/1
f 117/13/1 118/14/1 119/15/1 120/16/1
f 121/21/1 122/22/1 123/23/1 124/24/1
f 125/17/1 126/18/1 127/19/1 128/20/1
f 129/17/1 130/18/1 131/19/1 132/20/1
f 133/33/1 134/34/1 135/35/1 136/36/1
f 137/9/1 138/10/1 139/11/1 140/12/1
f 141/33/1 142/34/1 143/35/1 144/36/1
f 145/13/1 146/14/1 147/15/1 148/16/1
f 149/5/1 150/6/1 151/7/1 152/8/1
f 153/29/1 154/30/1 155/31/1 156/32/1
f 157/41/1 158/42/1 159/43/1 160/44/1
f 161/17/1 162/18/1 163/19/1 164/20/1
f 165/5/1 166/6/1 167/7/1 168/8/1
f 169/37/1 170/38/1 171/39/1 172/40/1
f 173/41/1 174/42/1 175/43/1 176/44/1
f 177/45/1 178/46/1 179/47/1 180/48/1
f 181/37/1 182/38/1 183/39/1 184/40/1
f 185/5/1 186/6/1 187/7/1 188/8/1
f 189/1/1 190/2/1 191/3/1 192/4/1
f 193/1/1 194/2/1 195/3/1 196/4/1
f 197/21/1 198/22/1 199/23/1 200/24/1
f 201/5/1 202/6/1 203/7/1 204/8/1
f 205/9/1 206/10/1 207/11/1 208/12/1
f 209/17/1 210/18/1 211/19/1 212/20/1
f 213/29/1 214/30/1 215/31/1 216/32/1
f 217/41/1 218/42/1 219/43/1 220/44/1
f 221/25/1 222/26/1 223/27/1 224/28/1
f 225/21/1 226/22/1 227/23/1 228/24/1
f 229/9/1 230/10/1 231/11/1 232/12/1
f 233/5/1 234/6/1 235/7/1 236/8/1
f 237/21/1 238/22/1 239/23/1 240/24/1
f 241/13/1 242/14/1 243/15/1 244/16/1
f 245/1/1 246/2/1 247/3/1 248/4/1
f 249/9/1 250/10/1 251/11/1 252/12/1
f 253/37/1 254/38/1 255/39/1 256/40/1
f 257/1/1 258/2/1 259/3/1 260/4/1
f 261/41/1 262/42/1 263/43/1 264/44/1
f 265/17/1 266/18/1 267/19/1 268/20/1
f 269/41/1 270/42/1 271/43/1 272/44/1
f 273/21/1 274/22/1 275/23/1 276/24/1
f 277/33/1 278/34/1 279/35/1 280/36/1
f 281/17/1 282/18/1 283/19/1 284/20/1
f 285/29/1 286/30/1 287/31/1 288/32/1
f 289/5/1 290/6/1 291/7/1 292/8/1
f 293/1/1 294/2/1 295/3/1 296/4/1
f 297/21/1 298/22/1 299/23/1 300/24/1
f 301/33/1 302/34/1 303/35/1 304/36/1
f 305/33/1 306/34/1 307/35/1 308/36/1
f 309/5/1 310/6/1 311/7/1 312/8/1
f 313/33/1 314/34/1 315/35/1 316/36/1
f 317/1/1 318/2/1 319/3/1 320/4/1
f 321/25/1 322/26/1 323/27/1 324/28/1
f 325/9/1 326/10/1 327/11/1 328/12/1
f 329/25/1 330/26/1 331/27/1 332/28/1
f 333/21/1 334/22/1 335/23/1 336/24/1
f 337/21/1 338/22/1 339/23/1 340/24/1
f 341/17/1 342/18/1 343/19/1 344/20/1
f 345/45/1 346/46/1 347/47/1 348/48/1
f 349/13/1 350/14/1 351/15/1 352/16/1
f 353/25/1 354/26/1 355/27/1 356/28/1
f 357/1/1 358/2/1 359/3/1 360/4/1
f 361/21/1 362/22/1 363/23/1 364/24/1
f 365/1/1 366/2/1 367/3/1 368/4/1
f 369/25/1 370/26/1 371/27/1 372/28/1
f 373/5/1 374/6/1 375/7/1 376/8/1
f 377/37/1 378/38/1 379/39/1 380/40/1
f 381/21/1 382/22/1 383/23/1 384/24/1
f 385/37/1 386/38/1 387/39/1 388/40/1
f 389/41/1 390/42/1 391/43/1 392/44/1
f 393/41/1 394/42/1 395/43/1 396/44/1
f 397/9/1 398/10/1 399/11/1 400/12/1
f 401/45/1 402/46/1 403/47/1 404/48/1
f 405/29/1 406/30/1 407/31/1 408/32/1
f 409/21/1 410/22/1 411/23/1 412/24/1
f 413/17/1 414/18/1 415/19/1 416/20/1
f 417/9/1 418/10/1 419/11/1 420/12/1
f 421/13/1 422/14/1 423/15/1 424/16/1
f 425/1/1 426/2/1 427/3/1 428/4/1
f 429/5/1 430/6/1 431/7/1 432/8/1
f 433/41/1 434/42/1 435/43/1 436/44/1
f 437/45/1 438/46/1 439/47/1 440/48/1
f 441/37/1 442/38/1 443/39/1 444/40/1
f 445/37/1 446/38/1 447/39/1 448/40/1
f 449/5/1 450/6/1 451/7/1 452/8/1
f 453/17/1 454/18/1 455/19/1 456/20/1
f 457/21/1 458/22/1 459/23/1 460/24/1
f 461/9/1 462/10/1 463/11/1 464/12/1
f 465/21/1 466/22/1 467/23/1 468/24/1
f 469/9/1 470/10/1 471/11/1 472/12/1
f 473/1/1 474/2/1 475/3/1 476/4/1
f 477/29/1 478/30/1 479/31/1 480/32/1
f 481/1/1 482/2/1 483/3/1 484/4/1
f 485/1/1 486/2/1 487/3/1 488/4/1
f 489/33/1 490/34/1 491/35/1 492/36/1
f 493/9/1 494/10/1 495/11/1 496/12/1
f 497/33/1 498/34/1 499/35/1 500/36/1
f 501/33/1 502/34/1 503/35/1 504/36/1
f 505/21/1 506/22/1 507/23/1 508/24/1
f 509/29/1 510/30/1 511/31/1 512/32/1
f 513/45/1 514/46/1 515/47/1 516/48/1
f 517/33/1 518/34/1 519/35/1 520/36/1
f 521/33/1 522/34/1 523/35/1 524/36/1
f 525/45/1 526/46/1 527/47/1 528/48/1
f 529/17/1 530/18/1 531/19/1 532/20/1
f 533/41/1 534/42/1 535/43/1 536/44/1
f 537/41/1 538/42/1 539/43/1 540/44/1
f 541/9/1 542/10/1 543/11/1 544/12/1
f 545/21/1 546/22/1 547/23/1 548/24/1
f 549/13/1 550/14/1 551/15/1 552/16/1
f 553/41/1 554/42/1 555/43/1 556/44/1
f 557/1/1 558/2/1 559/3/1 560/4/1
f 561/41/1 562/42/1 563/43/1 564/44/1
f 565/13/1 566/14/1 567/15/1 568/16/1
f 569/1/1 570/2/1 571/3/1 572/4/1
f 573/41/1 574/42/1 575/43/1 576/44/1
f 577/1/1 578/2/1 579/3/1 580/4/1
f 581/1/1 582/2/1 583/3/1 584/4/1
f 585/37/1 586/38/1 587/39/1 588/40/1
f 589/5/1 590/6/1 591/7/1 592/8/1
f 593/21/1 594/22/1 595/23/1 596/24/1
f 597/1/1 598/2/1 599/3/1 600/4/1
f 601/13/1 602/14/1 603/15/1 604/16/1
f 605/21/1 606/22/1 607/23/1 608/24/1
f 609/41/1 610/42/1 611/43/1 612/44/1
f 613/33/1 614/34/1 615/35/1 616/36/1
f 617/9/1 618/10/1 619/11/1 620/12/1
f 621/5/1 622/6/1 623/7/1 624/8/1
f 625/33/1 626/34/1 627/35/1 628/36/1
f 629/5/1 630/6/1 631/7/1 632/8/1
f 633/21/1 634/22/1 635/23/1 636/24/1
f 637/41/1 638/42/1 639/43/1 640/44/1
f 641/21/1 642/22/1 643/23/1 644/24/1
f 645/21/1 646/22/1 647/23/1 648/24/1
f 649/21/1 650/22/1 651/23/1 652/24/1
f 653/45/1 654/46/1 655/47/1 656/48/1
f 657/17/1 658/18/1 659/19/1 660/20/1
f 661/13/1 662/14/1 663/15/1 664/16/1
f 665/17/1 666/18/1 667/19/1 668/20/1
f 669/29/1 670/30/1 671/31/1 672/32/1
f 673/25/1 674/26/1 675/27/1 676/28/1
f 677/1/1 678/2/1 679/3/1 680/4/1
f 681/9/1 682/10/1 683/11/1 684/12/1
f 685/25/1 686/26/1 687/27/1 688/28/1
f 689/21/1 690/22/1 691/23/1 692/24/1
f 693/25/1 694/26/1 695/27/1 696/28/1
f 697/25/1 698/26/1 699/27/1 700/28/1
f 701/45/1 702/46/1 703/47/1 704/48/1
f 705/9/1 706/10/1 707/11/1 708/12/1
f 709/13/1 710/14/1 711/15/1 712/16/1
f 713/13/1 714/14/1 715/15/1 716/16/1
f 717/13/1 718/14/1 719/15/1 720/16/1
f 721/17/1 722/18/1 723/19/1 724/20/1
f 725/45/1 726/46/1 727/47/1 728/48/1
f 729/1/1 730/2/1 731/3/1 732/4/1
f 733/29/1 734/30/1 735/31/1 736/32/1
f 737/21/1 738/22/1 739/23/1 740/24/1
f 741/13/1 742/14/1 743/15/1 744/16/1
f 745/13/1 746/14/1 747/15/1 748/16/1
f 749/45/1 750/46/1 751/47/1 752/48/1
f 753/5/1 754/6/1 755/7/1 756/8/1
f 757/9/1 758/10/1 759/11/1 760/12/1
f 761/45/1 762/46/1 763/47/1 764/48/1
f 765/13/1 766/14/1 767/15/1 768/16/1
f 769/13/1 770/14/1 771/15/1 772/16/1
f 773/9/1 774/10/1 775/11/1 776/12/1
f 777/29/1 778/30/1 779/31/1 780/32/1
f 781/41/1 782/42/1 783/43/1 784/44/1
f 785/33/1 786/34/1 787/35/1 788/36/1
f 789/37/1 790/38/1 791/39/1 792/40/1
f 793/33/1 794/34/1 795/35/1 796/36/1
f 797/13/1 798/14/1 799/15/1 800/16/1
f 801/25/1 802/26/1 803/27/1 804/28/1
f 805/17/1 806/18/1 807/19/1 808/20/1
f 809/41/1 810/42/1 811/43/1 812/44/1
f 813/13/1 814/14/1 815/15/1 816/16/1
f 817/41/1 818/42/1 819/43/1 820/44/1
f 821/41/1 822/42/1 823/43/1 824/44/1
f 825/21/1 826/22/1 827/23/1 828/24/1
f 829/37/1 830/38/1 831/39/1 832/40/1
f 833/21/1 834/22/1 835/23/1 836/24/1
f 837/5/1 838/6/1 839/7/1 840/8/1
f 841/33/1 842/34/1 843/35/1 844/36/1
f 845/25/1 846/26/1 847/27/1 848/28/1
f 849/37/1 850/38/1 851/39/1 852/40/1
f 853/9/1 854/10/1 855/11/1 856/12/1
f 857/45/1 858/46/1 859/47/1 860/48/1
f 861/29/1 862/30/1 863/31/1 864/32/1
f 865/1/1 866/2/1 867/3/1 868/4/1
f 869/17/1 870/18/1 871/19/1 872/20/1
f 873/21/1 874/22/1 875/23/1 876/24/1
f 877/13/1 878/14/1 879/15/1 880/16/1
f 881/17/1 882/18/1 883/19/1 884/20/1
f 885/5/1 886/6/1 887/7/1 888/8/1
f 889/5/1 890/6/1 891/7/1 892/8/1
f 893/1/1 894/2/1 895/3/1 896/4/1
f 897/37/1 898/38/1 899/39/1 900/40/1
f 901/13/1 902/14/1 903/15/1 904/16/1
f 905/17/1 906/18/1 907/19/1 908/20/1
f 909/1/1 910/2/1 911/3/1 912/4/1
f 913/13/1 914/14/1 915/15/1 916/16/1
f 917/37/1 918/38/1 919/39/1 920/40/1
f 921/13/1 922/14/1 923/15/1 924/16/1
f 925/33/1 926/34/1 927/35/1 928/36/1
f 929/5/1 930/6/1 931/7/1 932/8/1
f 933/45/1 934/46/1 935/47/1 936/48/1
f 937/21/1 938/22/1 939/23/1 940/24/1
f 941/13/1 942/14/1 943/15/1 944/16/1
f 945/5/1 946/6/1 947/7/1 948/8/1
f 949/5/1 950/6/1 951/7/1 952/8/1
f 953/33/1 954/34/1 955/35/1 956/36/1
f 957/25/1 958/26/1 959/27/1 960/28/1
f 961/1/1 962/2/1 963/3/1 964/4/1
f 965/33/1 966/34/1 967/35/1 968/36/1
f 969/9/1 970/10/1 971/11/1 972/12/1
f 973/33/1 974/34/1 975/35/1 976/36/1
f 977/33/1 978/34/1 979/35/1 980/36/1
f 981/17/1 982/18/1 983/19/1 984/20/1
f 985/41/1 986/42/1 987/43/1 988/44/1
f 989/17/1 990/18/1 991/19/1 992/20/1
f 993/1/1 994/2/1 995/3/1 996/4/1
f 997/17/1 998/18/1 999/19/1 1000/20/1
f 1001/45/1 1002/46/1 1003/47/1 1004/48/1
f 1005/37/1 1006/38/1 1007/39/1 1008/40/1
f 1009/5/1 1010/6/1 1011/7/1 1012/8/1
f 1013/9/1 1014/10/1 1015/11/1 1016/12/1
f 1017/45/1 1018/46/1 1019/47/1 1020/48/1
f 1021/13/1 1022/14/1 1023/15/1 1024/16/1
f 1025/29/1 1026/30/1 1027/31/1 1028/32/1
f 1029/21/1 1030/22/1 1031/23/1 1032/24/1
f 1033/41/1 1034/42/1 1035/43/1 1036/44/1
f 1037/9/1 1038/10/1 1039/11/1 1040/12/1
f 1041/21/1 1042/22/1 1043/23/1 1044/24/1
f 1045/33/1 1046/34/1 1047/35/1 1048/36/1
f 1049/33/1 1050/34/1 1051/35/1 1052/36/1
f 1053/5/1 1054/6/1 1055/7/1 1056/8/1
f 1057/9/1 1058/10/1 1059/11/1 1060/12/1
f 1061/29/1 1062/30/1 1063/31/1 1064/32/1
f 1065/13/1 1066/14/1 1067/15/1 1068/16/1
f 1069/13/1 1070/14/1 1071/15/1 1072/16/1
f 1073/41/1 1074/42/1 1075/43/1 1076/44/1
f 1077/37/1 1078/38/1 1079/39/1 1080/40/1
f 1081/37/1 1082/38/1 1083/39/1 1084/40/1
f 1085/45/1 1086/46/1 1087/47/1 1088/48/1
f 1089/5/1 1090/6/1 1091/7/1 1092/8/1

