# Tiled2Unity generated file. Do not modify by hand.
# Wavefront file for 'Sand_mesh_0009.obj'

# Vertices (Count = 400)
v -36 -4 0
v -37 -4 0
v -37 -3 0
v -36 -3 0
v -35 -4 0
v -36 -4 0
v -36 -3 0
v -35 -3 0
v -34 -4 0
v -35 -4 0
v -35 -3 0
v -34 -3 0
v -36 -5 0
v -37 -5 0
v -37 -4 0
v -36 -4 0
v -35 -5 0
v -36 -5 0
v -36 -4 0
v -35 -4 0
v -34 -5 0
v -35 -5 0
v -35 -4 0
v -34 -4 0
v -61 -19 0
v -62 -19 0
v -62 -18 0
v -61 -18 0
v -60 -19 0
v -61 -19 0
v -61 -18 0
v -60 -18 0
v -59 -19 0
v -60 -19 0
v -60 -18 0
v -59 -18 0
v -57 -19 0
v -58 -19 0
v -58 -18 0
v -57 -18 0
v -56 -19 0
v -57 -19 0
v -57 -18 0
v -56 -18 0
v -54 -19 0
v -55 -19 0
v -55 -18 0
v -54 -18 0
v -53 -19 0
v -54 -19 0
v -54 -18 0
v -53 -18 0
v -61 -20 0
v -62 -20 0
v -62 -19 0
v -61 -19 0
v -60 -20 0
v -61 -20 0
v -61 -19 0
v -60 -19 0
v -59 -20 0
v -60 -20 0
v -60 -19 0
v -59 -19 0
v -57 -20 0
v -58 -20 0
v -58 -19 0
v -57 -19 0
v -56 -20 0
v -57 -20 0
v -57 -19 0
v -56 -19 0
v -54 -20 0
v -55 -20 0
v -55 -19 0
v -54 -19 0
v -53 -20 0
v -54 -20 0
v -54 -19 0
v -53 -19 0
v -10 -30 0
v -11 -30 0
v -11 -29 0
v -10 -29 0
v -9 -30 0
v -10 -30 0
v -10 -29 0
v -9 -29 0
v -8 -30 0
v -9 -30 0
v -9 -29 0
v -8 -29 0
v -10 -31 0
v -11 -31 0
v -11 -30 0
v -10 -30 0
v -9 -31 0
v -10 -31 0
v -10 -30 0
v -9 -30 0
v -8 -31 0
v -9 -31 0
v -9 -30 0
v -8 -30 0
v -90 -38 0
v -91 -38 0
v -91 -37 0
v -90 -37 0
v -89 -38 0
v -90 -38 0
v -90 -37 0
v -89 -37 0
v -88 -38 0
v -89 -38 0
v -89 -37 0
v -88 -37 0
v -90 -39 0
v -91 -39 0
v -91 -38 0
v -90 -38 0
v -89 -39 0
v -90 -39 0
v -90 -38 0
v -89 -38 0
v -88 -39 0
v -89 -39 0
v -89 -38 0
v -88 -38 0
v -69 -54 0
v -70 -54 0
v -70 -53 0
v -69 -53 0
v -68 -54 0
v -69 -54 0
v -69 -53 0
v -68 -53 0
v -67 -54 0
v -68 -54 0
v -68 -53 0
v -67 -53 0
v -69 -55 0
v -70 -55 0
v -70 -54 0
v -69 -54 0
v -68 -55 0
v -69 -55 0
v -69 -54 0
v -68 -54 0
v -67 -55 0
v -68 -55 0
v -68 -54 0
v -67 -54 0
v -48 -55 0
v -49 -55 0
v -49 -54 0
v -48 -54 0
v -47 -55 0
v -48 -55 0
v -48 -54 0
v -47 -54 0
v -46 -55 0
v -47 -55 0
v -47 -54 0
v -46 -54 0
v -48 -56 0
v -49 -56 0
v -49 -55 0
v -48 -55 0
v -47 -56 0
v -48 -56 0
v -48 -55 0
v -47 -55 0
v -46 -56 0
v -47 -56 0
v -47 -55 0
v -46 -55 0
v -13 -56 0
v -14 -56 0
v -14 -55 0
v -13 -55 0
v -12 -56 0
v -13 -56 0
v -13 -55 0
v -12 -55 0
v -11 -56 0
v -12 -56 0
v -12 -55 0
v -11 -55 0
v -13 -57 0
v -14 -57 0
v -14 -56 0
v -13 -56 0
v -12 -57 0
v -13 -57 0
v -13 -56 0
v -12 -56 0
v -11 -57 0
v -12 -57 0
v -12 -56 0
v -11 -56 0
v -30 -58 0
v -31 -58 0
v -31 -57 0
v -30 -57 0
v -29 -58 0
v -30 -58 0
v -30 -57 0
v -29 -57 0
v -27 -58 0
v -28 -58 0
v -28 -57 0
v -27 -57 0
v -26 -58 0
v -27 -58 0
v -27 -57 0
v -26 -57 0
v -24 -58 0
v -25 -58 0
v -25 -57 0
v -24 -57 0
v -23 -58 0
v -24 -58 0
v -24 -57 0
v -23 -57 0
v -30 -59 0
v -31 -59 0
v -31 -58 0
v -30 -58 0
v -29 -59 0
v -30 -59 0
v -30 -58 0
v -29 -58 0
v -27 -59 0
v -28 -59 0
v -28 -58 0
v -27 -58 0
v -26 -59 0
v -27 -59 0
v -27 -58 0
v -26 -58 0
v -24 -59 0
v -25 -59 0
v -25 -58 0
v -24 -58 0
v -23 -59 0
v -24 -59 0
v -24 -58 0
v -23 -58 0
v -55 -60 0
v -56 -60 0
v -56 -59 0
v -55 -59 0
v -54 -60 0
v -55 -60 0
v -55 -59 0
v -54 -59 0
v -53 -60 0
v -54 -60 0
v -54 -59 0
v -53 -59 0
v -55 -61 0
v -56 -61 0
v -56 -60 0
v -55 -60 0
v -54 -61 0
v -55 -61 0
v -55 -60 0
v -54 -60 0
v -53 -61 0
v -54 -61 0
v -54 -60 0
v -53 -60 0
v -44 -61 0
v -45 -61 0
v -45 -60 0
v -44 -60 0
v -43 -61 0
v -44 -61 0
v -44 -60 0
v -43 -60 0
v -30 -61 0
v -31 -61 0
v -31 -60 0
v -30 -60 0
v -29 -61 0
v -30 -61 0
v -30 -60 0
v -29 -60 0
v -27 -61 0
v -28 -61 0
v -28 -60 0
v -27 -60 0
v -26 -61 0
v -27 -61 0
v -27 -60 0
v -26 -60 0
v -24 -61 0
v -25 -61 0
v -25 -60 0
v -24 -60 0
v -23 -61 0
v -24 -61 0
v -24 -60 0
v -23 -60 0
v -30 -62 0
v -31 -62 0
v -31 -61 0
v -30 -61 0
v -29 -62 0
v -30 -62 0
v -30 -61 0
v -29 -61 0
v -27 -62 0
v -28 -62 0
v -28 -61 0
v -27 -61 0
v -26 -62 0
v -27 -62 0
v -27 -61 0
v -26 -61 0
v -24 -62 0
v -25 -62 0
v -25 -61 0
v -24 -61 0
v -23 -62 0
v -24 -62 0
v -24 -61 0
v -23 -61 0
v -61 -66 0
v -62 -66 0
v -62 -65 0
v -61 -65 0
v -60 -66 0
v -61 -66 0
v -61 -65 0
v -60 -65 0
v -59 -66 0
v -60 -66 0
v -60 -65 0
v -59 -65 0
v -49 -66 0
v -50 -66 0
v -50 -65 0
v -49 -65 0
v -48 -66 0
v -49 -66 0
v -49 -65 0
v -48 -65 0
v -47 -66 0
v -48 -66 0
v -48 -65 0
v -47 -65 0
v -61 -67 0
v -62 -67 0
v -62 -66 0
v -61 -66 0
v -60 -67 0
v -61 -67 0
v -61 -66 0
v -60 -66 0
v -59 -67 0
v -60 -67 0
v -60 -66 0
v -59 -66 0
v -49 -67 0
v -50 -67 0
v -50 -66 0
v -49 -66 0
v -48 -67 0
v -49 -67 0
v -49 -66 0
v -48 -66 0
v -47 -67 0
v -48 -67 0
v -48 -66 0
v -47 -66 0
v -9 -86 0
v -10 -86 0
v -10 -85 0
v -9 -85 0
v -8 -86 0
v -9 -86 0
v -9 -85 0
v -8 -85 0
v -7 -86 0
v -8 -86 0
v -8 -85 0
v -7 -85 0
v -9 -87 0
v -10 -87 0
v -10 -86 0
v -9 -86 0
v -8 -87 0
v -9 -87 0
v -9 -86 0
v -8 -86 0
v -7 -87 0
v -8 -87 0
v -8 -86 0
v -7 -86 0

# Texture cooridinates (Count = 52)
vt 0.3161157 0.3555133
vt 0.3326446 0.3555133
vt 0.3326446 0.3859316
vt 0.3161157 0.3859316
vt 0.2985537 0.3555133
vt 0.3150826 0.3555133
vt 0.3150826 0.3859316
vt 0.2985537 0.3859316
vt 0.2809917 0.3555133
vt 0.2975207 0.3555133
vt 0.2975207 0.3859316
vt 0.2809917 0.3859316
vt 0.3161157 0.3231939
vt 0.3326446 0.3231939
vt 0.3326446 0.3536122
vt 0.3161157 0.3536122
vt 0.2985537 0.3231939
vt 0.3150826 0.3231939
vt 0.3150826 0.3536122
vt 0.2985537 0.3536122
vt 0.2809917 0.3231939
vt 0.2975207 0.3231939
vt 0.2975207 0.3536122
vt 0.2809917 0.3536122
vt 0.8780992 0.2908745
vt 0.8946281 0.2908745
vt 0.8946281 0.3212928
vt 0.8780992 0.3212928
vt 0.8605372 0.6463878
vt 0.8770661 0.6463878
vt 0.8770661 0.6768061
vt 0.8605372 0.6768061
vt 0.8429752 0.6463878
vt 0.8595041 0.6463878
vt 0.8595041 0.6768061
vt 0.8429752 0.6768061
vt 0.8780992 0.2585551
vt 0.8946281 0.2585551
vt 0.8946281 0.2889734
vt 0.8780992 0.2889734
vt 0.8605372 0.6140684
vt 0.8770661 0.6140684
vt 0.8770661 0.6444867
vt 0.8605372 0.6444867
vt 0.8429752 0.6140684
vt 0.8595041 0.6140684
vt 0.8595041 0.6444867
vt 0.8429752 0.6444867
vt 0.9307851 0.6787072
vt 0.947314 0.6787072
vt 0.947314 0.7091255
vt 0.9307851 0.7091255

# Normal
vn 0 0 -1

# Mesh description
g Sand_mesh_0009

# Faces
f 1/1/1 2/2/1 3/3/1 4/4/1
f 5/5/1 6/6/1 7/7/1 8/8/1
f 9/9/1 10/10/1 11/11/1 12/12/1
f 13/13/1 14/14/1 15/15/1 16/16/1
f 17/17/1 18/18/1 19/19/1 20/20/1
f 21/21/1 22/22/1 23/23/1 24/24/1
f 25/25/1 26/26/1 27/27/1 28/28/1
f 29/29/1 30/30/1 31/31/1 32/32/1
f 33/33/1 34/34/1 35/35/1 36/36/1
f 37/29/1 38/30/1 39/31/1 40/32/1
f 41/33/1 42/34/1 43/35/1 44/36/1
f 45/29/1 46/30/1 47/31/1 48/32/1
f 49/33/1 50/34/1 51/35/1 52/36/1
f 53/37/1 54/38/1 55/39/1 56/40/1
f 57/41/1 58/42/1 59/43/1 60/44/1
f 61/45/1 62/46/1 63/47/1 64/48/1
f 65/41/1 66/42/1 67/43/1 68/44/1
f 69/45/1 70/46/1 71/47/1 72/48/1
f 73/41/1 74/42/1 75/43/1 76/44/1
f 77/45/1 78/46/1 79/47/1 80/48/1
f 81/1/1 82/2/1 83/3/1 84/4/1
f 85/5/1 86/6/1 87/7/1 88/8/1
f 89/9/1 90/10/1 91/11/1 92/12/1
f 93/13/1 94/14/1 95/15/1 96/16/1
f 97/17/1 98/18/1 99/19/1 100/20/1
f 101/21/1 102/22/1 103/23/1 104/24/1
f 105/1/1 106/2/1 107/3/1 108/4/1
f 109/5/1 110/6/1 111/7/1 112/8/1
f 113/9/1 114/10/1 115/11/1 116/12/1
f 117/13/1 118/14/1 119/15/1 120/16/1
f 121/17/1 122/18/1 123/19/1 124/20/1
f 125/21/1 126/22/1 127/23/1 128/24/1
f 129/1/1 130/2/1 131/3/1 132/4/1
f 133/5/1 134/6/1 135/7/1 136/8/1
f 137/9/1 138/10/1 139/11/1 140/12/1
f 141/13/1 142/14/1 143/15/1 144/16/1
f 145/17/1 146/18/1 147/19/1 148/20/1
f 149/21/1 150/22/1 151/23/1 152/24/1
f 153/1/1 154/2/1 155/3/1 156/4/1
f 157/5/1 158/6/1 159/7/1 160/8/1
f 161/9/1 162/10/1 163/11/1 164/12/1
f 165/13/1 166/14/1 167/15/1 168/16/1
f 169/17/1 170/18/1 171/19/1 172/20/1
f 173/21/1 174/22/1 175/23/1 176/24/1
f 177/1/1 178/2/1 179/3/1 180/4/1
f 181/5/1 182/6/1 183/7/1 184/8/1
f 185/9/1 186/10/1 187/11/1 188/12/1
f 189/13/1 190/14/1 191/15/1 192/16/1
f 193/17/1 194/18/1 195/19/1 196/20/1
f 197/21/1 198/22/1 199/23/1 200/24/1
f 201/29/1 202/30/1 203/31/1 204/32/1
f 205/33/1 206/34/1 207/35/1 208/36/1
f 209/29/1 210/30/1 211/31/1 212/32/1
f 213/33/1 214/34/1 215/35/1 216/36/1
f 217/29/1 218/30/1 219/31/1 220/32/1
f 221/33/1 222/34/1 223/35/1 224/36/1
f 225/41/1 226/42/1 227/43/1 228/44/1
f 229/45/1 230/46/1 231/47/1 232/48/1
f 233/41/1 234/42/1 235/43/1 236/44/1
f 237/45/1 238/46/1 239/47/1 240/48/1
f 241/41/1 242/42/1 243/43/1 244/44/1
f 245/45/1 246/46/1 247/47/1 248/48/1
f 249/1/1 250/2/1 251/3/1 252/4/1
f 253/5/1 254/6/1 255/7/1 256/8/1
f 257/9/1 258/10/1 259/11/1 260/12/1
f 261/13/1 262/14/1 263/15/1 264/16/1
f 265/17/1 266/18/1 267/19/1 268/20/1
f 269/21/1 270/22/1 271/23/1 272/24/1
f 273/49/1 274/50/1 275/51/1 276/52/1
f 277/49/1 278/50/1 279/51/1 280/52/1
f 281/29/1 282/30/1 283/31/1 284/32/1
f 285/33/1 286/34/1 287/35/1 288/36/1
f 289/29/1 290/30/1 291/31/1 292/32/1
f 293/33/1 294/34/1 295/35/1 296/36/1
f 297/29/1 298/30/1 299/31/1 300/32/1
f 301/33/1 302/34/1 303/35/1 304/36/1
f 305/41/1 306/42/1 307/43/1 308/44/1
f 309/45/1 310/46/1 311/47/1 312/48/1
f 313/41/1 314/42/1 315/43/1 316/44/1
f 317/45/1 318/46/1 319/47/1 320/48/1
f 321/41/1 322/42/1 323/43/1 324/44/1
f 325/45/1 326/46/1 327/47/1 328/48/1
f 329/1/1 330/2/1 331/3/1 332/4/1
f 333/5/1 334/6/1 335/7/1 336/8/1
f 337/9/1 338/10/1 339/11/1 340/12/1
f 341/1/1 342/2/1 343/3/1 344/4/1
f 345/5/1 346/6/1 347/7/1 348/8/1
f 349/9/1 350/10/1 351/11/1 352/12/1
f 353/13/1 354/14/1 355/15/1 356/16/1
f 357/17/1 358/18/1 359/19/1 360/20/1
f 361/21/1 362/22/1 363/23/1 364/24/1
f 365/13/1 366/14/1 367/15/1 368/16/1
f 369/17/1 370/18/1 371/19/1 372/20/1
f 373/21/1 374/22/1 375/23/1 376/24/1
f 377/1/1 378/2/1 379/3/1 380/4/1
f 381/5/1 382/6/1 383/7/1 384/8/1
f 385/9/1 386/10/1 387/11/1 388/12/1
f 389/13/1 390/14/1 391/15/1 392/16/1
f 393/17/1 394/18/1 395/19/1 396/20/1
f 397/21/1 398/22/1 399/23/1 400/24/1

