# Tiled2Unity generated file. Do not modify by hand.
# Wavefront file for 'Sand_mesh_0004.obj'

# Vertices (Count = 224)
v -62 -4 0
v -63 -4 0
v -63 -3 0
v -62 -3 0
v -74 -6 0
v -75 -6 0
v -75 -5 0
v -74 -5 0
v -58 -8 0
v -59 -8 0
v -59 -7 0
v -58 -7 0
v -45 -8 0
v -46 -8 0
v -46 -7 0
v -45 -7 0
v -16 -8 0
v -17 -8 0
v -17 -7 0
v -16 -7 0
v -70 -9 0
v -71 -9 0
v -71 -8 0
v -70 -8 0
v -89 -10 0
v -90 -10 0
v -90 -9 0
v -89 -9 0
v -5 -11 0
v -6 -11 0
v -6 -10 0
v -5 -10 0
v -51 -20 0
v -52 -20 0
v -52 -19 0
v -51 -19 0
v -38 -20 0
v -39 -20 0
v -39 -19 0
v -38 -19 0
v -86 -21 0
v -87 -21 0
v -87 -20 0
v -86 -20 0
v -10 -21 0
v -11 -21 0
v -11 -20 0
v -10 -20 0
v -86 -22 0
v -87 -22 0
v -87 -21 0
v -86 -21 0
v -72 -23 0
v -73 -23 0
v -73 -22 0
v -72 -22 0
v -92 -28 0
v -93 -28 0
v -93 -27 0
v -92 -27 0
v -63 -28 0
v -64 -28 0
v -64 -27 0
v -63 -27 0
v -92 -29 0
v -93 -29 0
v -93 -28 0
v -92 -28 0
v -56 -31 0
v -57 -31 0
v -57 -30 0
v -56 -30 0
v -86 -33 0
v -87 -33 0
v -87 -32 0
v -86 -32 0
v -16 -38 0
v -17 -38 0
v -17 -37 0
v -16 -37 0
v -67 -42 0
v -68 -42 0
v -68 -41 0
v -67 -41 0
v -28 -42 0
v -29 -42 0
v -29 -41 0
v -28 -41 0
v -53 -43 0
v -54 -43 0
v -54 -42 0
v -53 -42 0
v -8 -43 0
v -9 -43 0
v -9 -42 0
v -8 -42 0
v -7 -43 0
v -8 -43 0
v -8 -42 0
v -7 -42 0
v -96 -46 0
v -97 -46 0
v -97 -45 0
v -96 -45 0
v -73 -48 0
v -74 -48 0
v -74 -47 0
v -73 -47 0
v -88 -49 0
v -89 -49 0
v -89 -48 0
v -88 -48 0
v -25 -50 0
v -26 -50 0
v -26 -49 0
v -25 -49 0
v -56 -53 0
v -57 -53 0
v -57 -52 0
v -56 -52 0
v -62 -60 0
v -63 -60 0
v -63 -59 0
v -62 -59 0
v -93 -62 0
v -94 -62 0
v -94 -61 0
v -93 -61 0
v -77 -62 0
v -78 -62 0
v -78 -61 0
v -77 -61 0
v -84 -64 0
v -85 -64 0
v -85 -63 0
v -84 -63 0
v -54 -66 0
v -55 -66 0
v -55 -65 0
v -54 -65 0
v -91 -68 0
v -92 -68 0
v -92 -67 0
v -91 -67 0
v -91 -69 0
v -92 -69 0
v -92 -68 0
v -91 -68 0
v -59 -74 0
v -60 -74 0
v -60 -73 0
v -59 -73 0
v -48 -74 0
v -49 -74 0
v -49 -73 0
v -48 -73 0
v -63 -77 0
v -64 -77 0
v -64 -76 0
v -63 -76 0
v -63 -78 0
v -64 -78 0
v -64 -77 0
v -63 -77 0
v -74 -79 0
v -75 -79 0
v -75 -78 0
v -74 -78 0
v -87 -81 0
v -88 -81 0
v -88 -80 0
v -87 -80 0
v -78 -90 0
v -79 -90 0
v -79 -89 0
v -78 -89 0
v -65 -90 0
v -66 -90 0
v -66 -89 0
v -65 -89 0
v -54 -91 0
v -55 -91 0
v -55 -90 0
v -54 -90 0
v -53 -91 0
v -54 -91 0
v -54 -90 0
v -53 -90 0
v -32 -91 0
v -33 -91 0
v -33 -90 0
v -32 -90 0
v -18 -92 0
v -19 -92 0
v -19 -91 0
v -18 -91 0
v -83 -94 0
v -84 -94 0
v -84 -93 0
v -83 -93 0
v -69 -95 0
v -70 -95 0
v -70 -94 0
v -69 -94 0
v -68 -95 0
v -69 -95 0
v -69 -94 0
v -68 -94 0
v -58 -96 0
v -59 -96 0
v -59 -95 0
v -58 -95 0
v -50 -96 0
v -51 -96 0
v -51 -95 0
v -50 -95 0
v -28 -97 0
v -29 -97 0
v -29 -96 0
v -28 -96 0
v -14 -97 0
v -15 -97 0
v -15 -96 0
v -14 -96 0

# Texture cooridinates (Count = 8)
vt 0.3863636 0.6140684
vt 0.4028926 0.6140684
vt 0.4028926 0.6444867
vt 0.3863636 0.6444867
vt 0.3863636 0.6463878
vt 0.4028926 0.6463878
vt 0.4028926 0.6768061
vt 0.3863636 0.6768061

# Normal
vn 0 0 -1

# Mesh description
g Sand_mesh_0004

# Faces
f 1/1/1 2/2/1 3/3/1 4/4/1
f 5/1/1 6/2/1 7/3/1 8/4/1
f 9/5/1 10/6/1 11/7/1 12/8/1
f 13/1/1 14/2/1 15/3/1 16/4/1
f 17/5/1 18/6/1 19/7/1 20/8/1
f 21/5/1 22/6/1 23/7/1 24/8/1
f 25/5/1 26/6/1 27/7/1 28/8/1
f 29/5/1 30/6/1 31/7/1 32/8/1
f 33/5/1 34/6/1 35/7/1 36/8/1
f 37/1/1 38/2/1 39/3/1 40/4/1
f 41/1/1 42/2/1 43/3/1 44/4/1
f 45/5/1 46/6/1 47/7/1 48/8/1
f 49/5/1 50/6/1 51/7/1 52/8/1
f 53/1/1 54/2/1 55/3/1 56/4/1
f 57/5/1 58/6/1 59/7/1 60/8/1
f 61/1/1 62/2/1 63/3/1 64/4/1
f 65/1/1 66/2/1 67/3/1 68/4/1
f 69/5/1 70/6/1 71/7/1 72/8/1
f 73/5/1 74/6/1 75/7/1 76/8/1
f 77/1/1 78/2/1 79/3/1 80/4/1
f 81/1/1 82/2/1 83/3/1 84/4/1
f 85/5/1 86/6/1 87/7/1 88/8/1
f 89/5/1 90/6/1 91/7/1 92/8/1
f 93/5/1 94/6/1 95/7/1 96/8/1
f 97/1/1 98/2/1 99/3/1 100/4/1
f 101/1/1 102/2/1 103/3/1 104/4/1
f 105/5/1 106/6/1 107/7/1 108/8/1
f 109/1/1 110/2/1 111/3/1 112/4/1
f 113/1/1 114/2/1 115/3/1 116/4/1
f 117/5/1 118/6/1 119/7/1 120/8/1
f 121/1/1 122/2/1 123/3/1 124/4/1
f 125/5/1 126/6/1 127/7/1 128/8/1
f 129/1/1 130/2/1 131/3/1 132/4/1
f 133/5/1 134/6/1 135/7/1 136/8/1
f 137/1/1 138/2/1 139/3/1 140/4/1
f 141/1/1 142/2/1 143/3/1 144/4/1
f 145/1/1 146/2/1 147/3/1 148/4/1
f 149/5/1 150/6/1 151/7/1 152/8/1
f 153/1/1 154/2/1 155/3/1 156/4/1
f 157/1/1 158/2/1 159/3/1 160/4/1
f 161/5/1 162/6/1 163/7/1 164/8/1
f 165/1/1 166/2/1 167/3/1 168/4/1
f 169/1/1 170/2/1 171/3/1 172/4/1
f 173/5/1 174/6/1 175/7/1 176/8/1
f 177/1/1 178/2/1 179/3/1 180/4/1
f 181/5/1 182/6/1 183/7/1 184/8/1
f 185/5/1 186/6/1 187/7/1 188/8/1
f 189/1/1 190/2/1 191/3/1 192/4/1
f 193/5/1 194/6/1 195/7/1 196/8/1
f 197/5/1 198/6/1 199/7/1 200/8/1
f 201/1/1 202/2/1 203/3/1 204/4/1
f 205/5/1 206/6/1 207/7/1 208/8/1
f 209/5/1 210/6/1 211/7/1 212/8/1
f 213/5/1 214/6/1 215/7/1 216/8/1
f 217/1/1 218/2/1 219/3/1 220/4/1
f 221/1/1 222/2/1 223/3/1 224/4/1

