# Tiled2Unity generated file. Do not modify by hand.
# Wavefront file for 'Sand_mesh_0003.obj'

# Vertices (Count = 424)
v -35 -48 0
v -36 -48 0
v -36 -47 0
v -35 -47 0
v -34 -48 0
v -35 -48 0
v -35 -47 0
v -34 -47 0
v -35 -49 0
v -36 -49 0
v -36 -48 0
v -35 -48 0
v -34 -49 0
v -35 -49 0
v -35 -48 0
v -34 -48 0
v -36 -50 0
v -37 -50 0
v -37 -49 0
v -36 -49 0
v -35 -50 0
v -36 -50 0
v -36 -49 0
v -35 -49 0
v -34 -50 0
v -35 -50 0
v -35 -49 0
v -34 -49 0
v -33 -50 0
v -34 -50 0
v -34 -49 0
v -33 -49 0
v -33 -51 0
v -34 -51 0
v -34 -50 0
v -33 -50 0
v -33 -52 0
v -34 -52 0
v -34 -51 0
v -33 -51 0
v -33 -53 0
v -34 -53 0
v -34 -52 0
v -33 -52 0
v -32 -53 0
v -33 -53 0
v -33 -52 0
v -32 -52 0
v -33 -54 0
v -34 -54 0
v -34 -53 0
v -33 -53 0
v -33 -55 0
v -34 -55 0
v -34 -54 0
v -33 -54 0
v -32 -55 0
v -33 -55 0
v -33 -54 0
v -32 -54 0
v -33 -56 0
v -34 -56 0
v -34 -55 0
v -33 -55 0
v -32 -56 0
v -33 -56 0
v -33 -55 0
v -32 -55 0
v -33 -58 0
v -34 -58 0
v -34 -57 0
v -33 -57 0
v -32 -58 0
v -33 -58 0
v -33 -57 0
v -32 -57 0
v -33 -59 0
v -34 -59 0
v -34 -58 0
v -33 -58 0
v -32 -59 0
v -33 -59 0
v -33 -58 0
v -32 -58 0
v -33 -60 0
v -34 -60 0
v -34 -59 0
v -33 -59 0
v -32 -60 0
v -33 -60 0
v -33 -59 0
v -32 -59 0
v -33 -61 0
v -34 -61 0
v -34 -60 0
v -33 -60 0
v -32 -61 0
v -33 -61 0
v -33 -60 0
v -32 -60 0
v -33 -62 0
v -34 -62 0
v -34 -61 0
v -33 -61 0
v -32 -62 0
v -33 -62 0
v -33 -61 0
v -32 -61 0
v -33 -63 0
v -34 -63 0
v -34 -62 0
v -33 -62 0
v -32 -63 0
v -33 -63 0
v -33 -62 0
v -32 -62 0
v -33 -64 0
v -34 -64 0
v -34 -63 0
v -33 -63 0
v -32 -64 0
v -33 -64 0
v -33 -63 0
v -32 -63 0
v -33 -65 0
v -34 -65 0
v -34 -64 0
v -33 -64 0
v -32 -65 0
v -33 -65 0
v -33 -64 0
v -32 -64 0
v -33 -66 0
v -34 -66 0
v -34 -65 0
v -33 -65 0
v -32 -66 0
v -33 -66 0
v -33 -65 0
v -32 -65 0
v -33 -67 0
v -34 -67 0
v -34 -66 0
v -33 -66 0
v -32 -67 0
v -33 -67 0
v -33 -66 0
v -32 -66 0
v -33 -68 0
v -34 -68 0
v -34 -67 0
v -33 -67 0
v -32 -68 0
v -33 -68 0
v -33 -67 0
v -32 -67 0
v -33 -69 0
v -34 -69 0
v -34 -68 0
v -33 -68 0
v -32 -69 0
v -33 -69 0
v -33 -68 0
v -32 -68 0
v -33 -70 0
v -34 -70 0
v -34 -69 0
v -33 -69 0
v -32 -70 0
v -33 -70 0
v -33 -69 0
v -32 -69 0
v -33 -71 0
v -34 -71 0
v -34 -70 0
v -33 -70 0
v -32 -71 0
v -33 -71 0
v -33 -70 0
v -32 -70 0
v -33 -72 0
v -34 -72 0
v -34 -71 0
v -33 -71 0
v -32 -72 0
v -33 -72 0
v -33 -71 0
v -32 -71 0
v -33 -73 0
v -34 -73 0
v -34 -72 0
v -33 -72 0
v -32 -73 0
v -33 -73 0
v -33 -72 0
v -32 -72 0
v -33 -74 0
v -34 -74 0
v -34 -73 0
v -33 -73 0
v -32 -74 0
v -33 -74 0
v -33 -73 0
v -32 -73 0
v -33 -75 0
v -34 -75 0
v -34 -74 0
v -33 -74 0
v -32 -75 0
v -33 -75 0
v -33 -74 0
v -32 -74 0
v -33 -76 0
v -34 -76 0
v -34 -75 0
v -33 -75 0
v -32 -76 0
v -33 -76 0
v -33 -75 0
v -32 -75 0
v -33 -77 0
v -34 -77 0
v -34 -76 0
v -33 -76 0
v -32 -77 0
v -33 -77 0
v -33 -76 0
v -32 -76 0
v -34 -78 0
v -35 -78 0
v -35 -77 0
v -34 -77 0
v -33 -78 0
v -34 -78 0
v -34 -77 0
v -33 -77 0
v -32 -78 0
v -33 -78 0
v -33 -77 0
v -32 -77 0
v -34 -79 0
v -35 -79 0
v -35 -78 0
v -34 -78 0
v -33 -79 0
v -34 -79 0
v -34 -78 0
v -33 -78 0
v -32 -79 0
v -33 -79 0
v -33 -78 0
v -32 -78 0
v -34 -80 0
v -35 -80 0
v -35 -79 0
v -34 -79 0
v -33 -80 0
v -34 -80 0
v -34 -79 0
v -33 -79 0
v -42 -81 0
v -43 -81 0
v -43 -80 0
v -42 -80 0
v -41 -81 0
v -42 -81 0
v -42 -80 0
v -41 -80 0
v -40 -81 0
v -41 -81 0
v -41 -80 0
v -40 -80 0
v -39 -81 0
v -40 -81 0
v -40 -80 0
v -39 -80 0
v -38 -81 0
v -39 -81 0
v -39 -80 0
v -38 -80 0
v -37 -81 0
v -38 -81 0
v -38 -80 0
v -37 -80 0
v -36 -81 0
v -37 -81 0
v -37 -80 0
v -36 -80 0
v -35 -81 0
v -36 -81 0
v -36 -80 0
v -35 -80 0
v -34 -81 0
v -35 -81 0
v -35 -80 0
v -34 -80 0
v -33 -81 0
v -34 -81 0
v -34 -80 0
v -33 -80 0
v -42 -82 0
v -43 -82 0
v -43 -81 0
v -42 -81 0
v -41 -82 0
v -42 -82 0
v -42 -81 0
v -41 -81 0
v -40 -82 0
v -41 -82 0
v -41 -81 0
v -40 -81 0
v -39 -82 0
v -40 -82 0
v -40 -81 0
v -39 -81 0
v -38 -82 0
v -39 -82 0
v -39 -81 0
v -38 -81 0
v -37 -82 0
v -38 -82 0
v -38 -81 0
v -37 -81 0
v -36 -82 0
v -37 -82 0
v -37 -81 0
v -36 -81 0
v -35 -82 0
v -36 -82 0
v -36 -81 0
v -35 -81 0
v -34 -82 0
v -35 -82 0
v -35 -81 0
v -34 -81 0
v -33 -82 0
v -34 -82 0
v -34 -81 0
v -33 -81 0
v -42 -83 0
v -43 -83 0
v -43 -82 0
v -42 -82 0
v -41 -83 0
v -42 -83 0
v -42 -82 0
v -41 -82 0
v -40 -83 0
v -41 -83 0
v -41 -82 0
v -40 -82 0
v -42 -84 0
v -43 -84 0
v -43 -83 0
v -42 -83 0
v -41 -84 0
v -42 -84 0
v -42 -83 0
v -41 -83 0
v -40 -84 0
v -41 -84 0
v -41 -83 0
v -40 -83 0
v -42 -85 0
v -43 -85 0
v -43 -84 0
v -42 -84 0
v -41 -85 0
v -42 -85 0
v -42 -84 0
v -41 -84 0
v -40 -85 0
v -41 -85 0
v -41 -84 0
v -40 -84 0
v -42 -86 0
v -43 -86 0
v -43 -85 0
v -42 -85 0
v -41 -86 0
v -42 -86 0
v -42 -85 0
v -41 -85 0
v -40 -86 0
v -41 -86 0
v -41 -85 0
v -40 -85 0
v -42 -87 0
v -43 -87 0
v -43 -86 0
v -42 -86 0
v -41 -87 0
v -42 -87 0
v -42 -86 0
v -41 -86 0
v -40 -87 0
v -41 -87 0
v -41 -86 0
v -40 -86 0
v -42 -88 0
v -43 -88 0
v -43 -87 0
v -42 -87 0
v -41 -88 0
v -42 -88 0
v -42 -87 0
v -41 -87 0
v -40 -88 0
v -41 -88 0
v -41 -87 0
v -40 -87 0
v -42 -89 0
v -43 -89 0
v -43 -88 0
v -42 -88 0
v -41 -89 0
v -42 -89 0
v -42 -88 0
v -41 -88 0
v -40 -89 0
v -41 -89 0
v -41 -88 0
v -40 -88 0

# Texture cooridinates (Count = 8)
vt 0.1229339 0.904943
vt 0.1394628 0.904943
vt 0.1394628 0.9353612
vt 0.1229339 0.9353612
vt 0.1229339 0.8726236
vt 0.1394628 0.8726236
vt 0.1394628 0.9030418
vt 0.1229339 0.9030418

# Normal
vn 0 0 -1

# Mesh description
g Sand_mesh_0003

# Faces
f 1/1/1 2/2/1 3/3/1 4/4/1
f 5/1/1 6/2/1 7/3/1 8/4/1
f 9/5/1 10/6/1 11/7/1 12/8/1
f 13/1/1 14/2/1 15/3/1 16/4/1
f 17/1/1 18/2/1 19/3/1 20/4/1
f 21/5/1 22/6/1 23/7/1 24/8/1
f 25/1/1 26/2/1 27/3/1 28/4/1
f 29/5/1 30/6/1 31/7/1 32/8/1
f 33/1/1 34/2/1 35/3/1 36/4/1
f 37/1/1 38/2/1 39/3/1 40/4/1
f 41/1/1 42/2/1 43/3/1 44/4/1
f 45/5/1 46/6/1 47/7/1 48/8/1
f 49/1/1 50/2/1 51/3/1 52/4/1
f 53/5/1 54/6/1 55/7/1 56/8/1
f 57/1/1 58/2/1 59/3/1 60/4/1
f 61/1/1 62/2/1 63/3/1 64/4/1
f 65/1/1 66/2/1 67/3/1 68/4/1
f 69/5/1 70/6/1 71/7/1 72/8/1
f 73/5/1 74/6/1 75/7/1 76/8/1
f 77/5/1 78/6/1 79/7/1 80/8/1
f 81/1/1 82/2/1 83/3/1 84/4/1
f 85/5/1 86/6/1 87/7/1 88/8/1
f 89/1/1 90/2/1 91/3/1 92/4/1
f 93/1/1 94/2/1 95/3/1 96/4/1
f 97/5/1 98/6/1 99/7/1 100/8/1
f 101/5/1 102/6/1 103/7/1 104/8/1
f 105/5/1 106/6/1 107/7/1 108/8/1
f 109/5/1 110/6/1 111/7/1 112/8/1
f 113/1/1 114/2/1 115/3/1 116/4/1
f 117/5/1 118/6/1 119/7/1 120/8/1
f 121/1/1 122/2/1 123/3/1 124/4/1
f 125/5/1 126/6/1 127/7/1 128/8/1
f 129/1/1 130/2/1 131/3/1 132/4/1
f 133/1/1 134/2/1 135/3/1 136/4/1
f 137/1/1 138/2/1 139/3/1 140/4/1
f 141/5/1 142/6/1 143/7/1 144/8/1
f 145/1/1 146/2/1 147/3/1 148/4/1
f 149/5/1 150/6/1 151/7/1 152/8/1
f 153/1/1 154/2/1 155/3/1 156/4/1
f 157/1/1 158/2/1 159/3/1 160/4/1
f 161/1/1 162/2/1 163/3/1 164/4/1
f 165/5/1 166/6/1 167/7/1 168/8/1
f 169/1/1 170/2/1 171/3/1 172/4/1
f 173/1/1 174/2/1 175/3/1 176/4/1
f 177/5/1 178/6/1 179/7/1 180/8/1
f 181/5/1 182/6/1 183/7/1 184/8/1
f 185/1/1 186/2/1 187/3/1 188/4/1
f 189/5/1 190/6/1 191/7/1 192/8/1
f 193/5/1 194/6/1 195/7/1 196/8/1
f 197/1/1 198/2/1 199/3/1 200/4/1
f 201/5/1 202/6/1 203/7/1 204/8/1
f 205/1/1 206/2/1 207/3/1 208/4/1
f 209/5/1 210/6/1 211/7/1 212/8/1
f 213/1/1 214/2/1 215/3/1 216/4/1
f 217/1/1 218/2/1 219/3/1 220/4/1
f 221/1/1 222/2/1 223/3/1 224/4/1
f 225/1/1 226/2/1 227/3/1 228/4/1
f 229/1/1 230/2/1 231/3/1 232/4/1
f 233/5/1 234/6/1 235/7/1 236/8/1
f 237/5/1 238/6/1 239/7/1 240/8/1
f 241/1/1 242/2/1 243/3/1 244/4/1
f 245/1/1 246/2/1 247/3/1 248/4/1
f 249/1/1 250/2/1 251/3/1 252/4/1
f 253/1/1 254/2/1 255/3/1 256/4/1
f 257/1/1 258/2/1 259/3/1 260/4/1
f 261/5/1 262/6/1 263/7/1 264/8/1
f 265/1/1 266/2/1 267/3/1 268/4/1
f 269/1/1 270/2/1 271/3/1 272/4/1
f 273/5/1 274/6/1 275/7/1 276/8/1
f 277/5/1 278/6/1 279/7/1 280/8/1
f 281/5/1 282/6/1 283/7/1 284/8/1
f 285/1/1 286/2/1 287/3/1 288/4/1
f 289/5/1 290/6/1 291/7/1 292/8/1
f 293/1/1 294/2/1 295/3/1 296/4/1
f 297/5/1 298/6/1 299/7/1 300/8/1
f 301/1/1 302/2/1 303/3/1 304/4/1
f 305/5/1 306/6/1 307/7/1 308/8/1
f 309/5/1 310/6/1 311/7/1 312/8/1
f 313/5/1 314/6/1 315/7/1 316/8/1
f 317/5/1 318/6/1 319/7/1 320/8/1
f 321/1/1 322/2/1 323/3/1 324/4/1
f 325/5/1 326/6/1 327/7/1 328/8/1
f 329/5/1 330/6/1 331/7/1 332/8/1
f 333/5/1 334/6/1 335/7/1 336/8/1
f 337/5/1 338/6/1 339/7/1 340/8/1
f 341/1/1 342/2/1 343/3/1 344/4/1
f 345/1/1 346/2/1 347/3/1 348/4/1
f 349/5/1 350/6/1 351/7/1 352/8/1
f 353/1/1 354/2/1 355/3/1 356/4/1
f 357/1/1 358/2/1 359/3/1 360/4/1
f 361/5/1 362/6/1 363/7/1 364/8/1
f 365/5/1 366/6/1 367/7/1 368/8/1
f 369/5/1 370/6/1 371/7/1 372/8/1
f 373/5/1 374/6/1 375/7/1 376/8/1
f 377/5/1 378/6/1 379/7/1 380/8/1
f 381/1/1 382/2/1 383/3/1 384/4/1
f 385/5/1 386/6/1 387/7/1 388/8/1
f 389/5/1 390/6/1 391/7/1 392/8/1
f 393/5/1 394/6/1 395/7/1 396/8/1
f 397/5/1 398/6/1 399/7/1 400/8/1
f 401/5/1 402/6/1 403/7/1 404/8/1
f 405/5/1 406/6/1 407/7/1 408/8/1
f 409/5/1 410/6/1 411/7/1 412/8/1
f 413/1/1 414/2/1 415/3/1 416/4/1
f 417/5/1 418/6/1 419/7/1 420/8/1
f 421/1/1 422/2/1 423/3/1 424/4/1

