# Tiled2Unity generated file. Do not modify by hand.
# Wavefront file for 'Castle_mesh_0015.obj'

# Vertices (Count = 188)
v -5 -13 -0.26
v -6 -13 -0.26
v -6 -12 -0.26
v -5 -12 -0.26
v -4 -13 -0.26
v -5 -13 -0.26
v -5 -12 -0.26
v -4 -12 -0.26
v -3 -13 -0.26
v -4 -13 -0.26
v -4 -12 -0.26
v -3 -12 -0.26
v -6 -14 -0.28
v -7 -14 -0.28
v -7 -13 -0.28
v -6 -13 -0.28
v -5 -14 -0.28
v -6 -14 -0.28
v -6 -13 -0.28
v -5 -13 -0.28
v -4 -14 -0.28
v -5 -14 -0.28
v -5 -13 -0.28
v -4 -13 -0.28
v -3 -14 -0.28
v -4 -14 -0.28
v -4 -13 -0.28
v -3 -13 -0.28
v -6 -15 -0.3
v -7 -15 -0.3
v -7 -14 -0.3
v -6 -14 -0.3
v -5 -15 -0.3
v -6 -15 -0.3
v -6 -14 -0.3
v -5 -14 -0.3
v -4 -15 -0.3
v -5 -15 -0.3
v -5 -14 -0.3
v -4 -14 -0.3
v -3 -15 -0.3
v -4 -15 -0.3
v -4 -14 -0.3
v -3 -14 -0.3
v -7 -16 -0.32
v -8 -16 -0.32
v -8 -15 -0.32
v -7 -15 -0.32
v -6 -16 -0.32
v -7 -16 -0.32
v -7 -15 -0.32
v -6 -15 -0.32
v -5 -16 -0.32
v -6 -16 -0.32
v -6 -15 -0.32
v -5 -15 -0.32
v -4 -16 -0.32
v -5 -16 -0.32
v -5 -15 -0.32
v -4 -15 -0.32
v -7 -17 -0.34
v -8 -17 -0.34
v -8 -16 -0.34
v -7 -16 -0.34
v -6 -17 -0.34
v -7 -17 -0.34
v -7 -16 -0.34
v -6 -16 -0.34
v -5 -17 -0.34
v -6 -17 -0.34
v -6 -16 -0.34
v -5 -16 -0.34
v -4 -17 -0.34
v -5 -17 -0.34
v -5 -16 -0.34
v -4 -16 -0.34
v -7 -18 -0.36
v -8 -18 -0.36
v -8 -17 -0.36
v -7 -17 -0.36
v -6 -18 -0.36
v -7 -18 -0.36
v -7 -17 -0.36
v -6 -17 -0.36
v -5 -18 -0.36
v -6 -18 -0.36
v -6 -17 -0.36
v -5 -17 -0.36
v -4 -18 -0.36
v -5 -18 -0.36
v -5 -17 -0.36
v -4 -17 -0.36
v -7 -19 -0.38
v -8 -19 -0.38
v -8 -18 -0.38
v -7 -18 -0.38
v -6 -19 -0.38
v -7 -19 -0.38
v -7 -18 -0.38
v -6 -18 -0.38
v -5 -19 -0.38
v -6 -19 -0.38
v -6 -18 -0.38
v -5 -18 -0.38
v -8 -20 -0.4
v -9 -20 -0.4
v -9 -19 -0.4
v -8 -19 -0.4
v -7 -20 -0.4
v -8 -20 -0.4
v -8 -19 -0.4
v -7 -19 -0.4
v -6 -20 -0.4
v -7 -20 -0.4
v -7 -19 -0.4
v -6 -19 -0.4
v -5 -20 -0.4
v -6 -20 -0.4
v -6 -19 -0.4
v -5 -19 -0.4
v -8 -21 -0.42
v -9 -21 -0.42
v -9 -20 -0.42
v -8 -20 -0.42
v -7 -21 -0.42
v -8 -21 -0.42
v -8 -20 -0.42
v -7 -20 -0.42
v -6 -21 -0.42
v -7 -21 -0.42
v -7 -20 -0.42
v -6 -20 -0.42
v -5 -21 -0.42
v -6 -21 -0.42
v -6 -20 -0.42
v -5 -20 -0.42
v -8 -22 -0.44
v -9 -22 -0.44
v -9 -21 -0.44
v -8 -21 -0.44
v -7 -22 -0.44
v -8 -22 -0.44
v -8 -21 -0.44
v -7 -21 -0.44
v -6 -22 -0.44
v -7 -22 -0.44
v -7 -21 -0.44
v -6 -21 -0.44
v -5 -22 -0.44
v -6 -22 -0.44
v -6 -21 -0.44
v -5 -21 -0.44
v -8 -23 -0.46
v -9 -23 -0.46
v -9 -22 -0.46
v -8 -22 -0.46
v -7 -23 -0.46
v -8 -23 -0.46
v -8 -22 -0.46
v -7 -22 -0.46
v -6 -23 -0.46
v -7 -23 -0.46
v -7 -22 -0.46
v -6 -22 -0.46
v -8 -24 -0.48
v -9 -24 -0.48
v -9 -23 -0.48
v -8 -23 -0.48
v -7 -24 -0.48
v -8 -24 -0.48
v -8 -23 -0.48
v -7 -23 -0.48
v -6 -24 -0.48
v -7 -24 -0.48
v -7 -23 -0.48
v -6 -23 -0.48
v -8 -25 -0.5
v -9 -25 -0.5
v -9 -24 -0.5
v -8 -24 -0.5
v -7 -25 -0.5
v -8 -25 -0.5
v -8 -24 -0.5
v -7 -24 -0.5
v -6 -25 -0.5
v -7 -25 -0.5
v -7 -24 -0.5
v -6 -24 -0.5

# Texture cooridinates (Count = 36)
vt 0.1580579 0.6463878
vt 0.1745868 0.6463878
vt 0.1745868 0.6768061
vt 0.1580579 0.6768061
vt 0.1404959 0.6463878
vt 0.1570248 0.6463878
vt 0.1570248 0.6768061
vt 0.1404959 0.6768061
vt 0.1053719 0.6787072
vt 0.1219008 0.6787072
vt 0.1219008 0.7091255
vt 0.1053719 0.7091255
vt 0.1580579 0.6787072
vt 0.1745868 0.6787072
vt 0.1745868 0.7091255
vt 0.1580579 0.7091255
vt 0.08780992 0.6463878
vt 0.1043388 0.6463878
vt 0.1043388 0.6768061
vt 0.08780992 0.6768061
vt 0.1229339 0.6463878
vt 0.1394628 0.6463878
vt 0.1394628 0.6768061
vt 0.1229339 0.6768061
vt 0.1229339 0.6140684
vt 0.1394628 0.6140684
vt 0.1394628 0.6444867
vt 0.1229339 0.6444867
vt 0.1580579 0.6140684
vt 0.1745868 0.6140684
vt 0.1745868 0.6444867
vt 0.1580579 0.6444867
vt 0.1404959 0.6140684
vt 0.1570248 0.6140684
vt 0.1570248 0.6444867
vt 0.1404959 0.6444867

# Normal
vn 0 0 -1

# Mesh description
g Castle_mesh_0015

# Faces
f 1/1/1 2/2/1 3/3/1 4/4/1
f 5/5/1 6/6/1 7/7/1 8/8/1
f 9/9/1 10/10/1 11/11/1 12/12/1
f 13/13/1 14/14/1 15/15/1 16/16/1
f 17/17/1 18/18/1 19/19/1 20/20/1
f 21/5/1 22/6/1 23/7/1 24/8/1
f 25/21/1 26/22/1 27/23/1 28/24/1
f 29/1/1 30/2/1 31/3/1 32/4/1
f 33/5/1 34/6/1 35/7/1 36/8/1
f 37/9/1 38/10/1 39/11/1 40/12/1
f 41/25/1 42/26/1 43/27/1 44/28/1
f 45/13/1 46/14/1 47/15/1 48/16/1
f 49/17/1 50/18/1 51/19/1 52/20/1
f 53/5/1 54/6/1 55/7/1 56/8/1
f 57/21/1 58/22/1 59/23/1 60/24/1
f 61/1/1 62/2/1 63/3/1 64/4/1
f 65/5/1 66/6/1 67/7/1 68/8/1
f 69/5/1 70/6/1 71/7/1 72/8/1
f 73/21/1 74/22/1 75/23/1 76/24/1
f 77/1/1 78/2/1 79/3/1 80/4/1
f 81/5/1 82/6/1 83/7/1 84/8/1
f 85/9/1 86/10/1 87/11/1 88/12/1
f 89/25/1 90/26/1 91/27/1 92/28/1
f 93/1/1 94/2/1 95/3/1 96/4/1
f 97/5/1 98/6/1 99/7/1 100/8/1
f 101/21/1 102/22/1 103/23/1 104/24/1
f 105/13/1 106/14/1 107/15/1 108/16/1
f 109/17/1 110/18/1 111/19/1 112/20/1
f 113/5/1 114/6/1 115/7/1 116/8/1
f 117/21/1 118/22/1 119/23/1 120/24/1
f 121/1/1 122/2/1 123/3/1 124/4/1
f 125/5/1 126/6/1 127/7/1 128/8/1
f 129/5/1 130/6/1 131/7/1 132/8/1
f 133/21/1 134/22/1 135/23/1 136/24/1
f 137/1/1 138/2/1 139/3/1 140/4/1
f 141/5/1 142/6/1 143/7/1 144/8/1
f 145/9/1 146/10/1 147/11/1 148/12/1
f 149/25/1 150/26/1 151/27/1 152/28/1
f 153/1/1 154/2/1 155/3/1 156/4/1
f 157/5/1 158/6/1 159/7/1 160/8/1
f 161/21/1 162/22/1 163/23/1 164/24/1
f 165/1/1 166/2/1 167/3/1 168/4/1
f 169/5/1 170/6/1 171/7/1 172/8/1
f 173/21/1 174/22/1 175/23/1 176/24/1
f 177/29/1 178/30/1 179/31/1 180/32/1
f 181/33/1 182/34/1 183/35/1 184/36/1
f 185/25/1 186/26/1 187/27/1 188/28/1

