# Tiled2Unity generated file. Do not modify by hand.
# Wavefront file for 'Castle_mesh_0005.obj'

# Vertices (Count = 72)
v -30 -17 -0.34
v -31 -17 -0.34
v -31 -16 -0.34
v -30 -16 -0.34
v -19 -17 -0.34
v -20 -17 -0.34
v -20 -16 -0.34
v -19 -16 -0.34
v -30 -18 -0.36
v -31 -18 -0.36
v -31 -17 -0.36
v -30 -17 -0.36
v -19 -18 -0.36
v -20 -18 -0.36
v -20 -17 -0.36
v -19 -17 -0.36
v -30 -19 -0.38
v -31 -19 -0.38
v -31 -18 -0.38
v -30 -18 -0.38
v -19 -19 -0.38
v -20 -19 -0.38
v -20 -18 -0.38
v -19 -18 -0.38
v -30 -23 -0.46
v -31 -23 -0.46
v -31 -22 -0.46
v -30 -22 -0.46
v -19 -23 -0.46
v -20 -23 -0.46
v -20 -22 -0.46
v -19 -22 -0.46
v -30 -24 -0.48
v -31 -24 -0.48
v -31 -23 -0.48
v -30 -23 -0.48
v -19 -24 -0.48
v -20 -24 -0.48
v -20 -23 -0.48
v -19 -23 -0.48
v -30 -25 -0.5
v -31 -25 -0.5
v -31 -24 -0.5
v -30 -24 -0.5
v -19 -25 -0.5
v -20 -25 -0.5
v -20 -24 -0.5
v -19 -24 -0.5
v -30 -29 -0.58
v -31 -29 -0.58
v -31 -28 -0.58
v -30 -28 -0.58
v -19 -29 -0.58
v -20 -29 -0.58
v -20 -28 -0.58
v -19 -28 -0.58
v -30 -30 -0.6
v -31 -30 -0.6
v -31 -29 -0.6
v -30 -29 -0.6
v -19 -30 -0.6
v -20 -30 -0.6
v -20 -29 -0.6
v -19 -29 -0.6
v -30 -31 -0.62
v -31 -31 -0.62
v -31 -30 -0.62
v -30 -30 -0.62
v -19 -31 -0.62
v -20 -31 -0.62
v -20 -30 -0.62
v -19 -30 -0.62

# Texture cooridinates (Count = 12)
vt 0.8780992 0.9695817
vt 0.8946281 0.9695817
vt 0.8946281 1
vt 0.8780992 1
vt 0.8780992 0.9372624
vt 0.8946281 0.9372624
vt 0.8946281 0.9676806
vt 0.8780992 0.9676806
vt 0.8780992 0.904943
vt 0.8946281 0.904943
vt 0.8946281 0.9353612
vt 0.8780992 0.9353612

# Normal
vn 0 0 -1

# Mesh description
g Castle_mesh_0005

# Faces
f 1/1/1 2/2/1 3/3/1 4/4/1
f 5/1/1 6/2/1 7/3/1 8/4/1
f 9/5/1 10/6/1 11/7/1 12/8/1
f 13/5/1 14/6/1 15/7/1 16/8/1
f 17/9/1 18/10/1 19/11/1 20/12/1
f 21/9/1 22/10/1 23/11/1 24/12/1
f 25/1/1 26/2/1 27/3/1 28/4/1
f 29/1/1 30/2/1 31/3/1 32/4/1
f 33/5/1 34/6/1 35/7/1 36/8/1
f 37/5/1 38/6/1 39/7/1 40/8/1
f 41/9/1 42/10/1 43/11/1 44/12/1
f 45/9/1 46/10/1 47/11/1 48/12/1
f 49/1/1 50/2/1 51/3/1 52/4/1
f 53/1/1 54/2/1 55/3/1 56/4/1
f 57/5/1 58/6/1 59/7/1 60/8/1
f 61/5/1 62/6/1 63/7/1 64/8/1
f 65/9/1 66/10/1 67/11/1 68/12/1
f 69/9/1 70/10/1 71/11/1 72/12/1

