# Tiled2Unity generated file. Do not modify by hand.
# Wavefront file for 'Castle_mesh_0010.obj'

# Vertices (Count = 172)
v -8 -25 -0.5
v -9 -25 -0.5
v -9 -24 -0.5
v -8 -24 -0.5
v -7 -25 -0.5
v -8 -25 -0.5
v -8 -24 -0.5
v -7 -24 -0.5
v -8 -26 -0.52
v -9 -26 -0.52
v -9 -25 -0.52
v -8 -25 -0.52
v -7 -26 -0.52
v -8 -26 -0.52
v -8 -25 -0.52
v -7 -25 -0.52
v -4 -26 -0.52
v -5 -26 -0.52
v -5 -25 -0.52
v -4 -25 -0.52
v -8 -27 -0.54
v -9 -27 -0.54
v -9 -26 -0.54
v -8 -26 -0.54
v -7 -27 -0.54
v -8 -27 -0.54
v -8 -26 -0.54
v -7 -26 -0.54
v -8 -28 -0.56
v -9 -28 -0.56
v -9 -27 -0.56
v -8 -27 -0.56
v -7 -28 -0.56
v -8 -28 -0.56
v -8 -27 -0.56
v -7 -27 -0.56
v -8 -29 -0.58
v -9 -29 -0.58
v -9 -28 -0.58
v -8 -28 -0.58
v -7 -29 -0.58
v -8 -29 -0.58
v -8 -28 -0.58
v -7 -28 -0.58
v -8 -30 -0.6
v -9 -30 -0.6
v -9 -29 -0.6
v -8 -29 -0.6
v -7 -30 -0.6
v -8 -30 -0.6
v -8 -29 -0.6
v -7 -29 -0.6
v -8 -31 -0.62
v -9 -31 -0.62
v -9 -30 -0.62
v -8 -30 -0.62
v -7 -31 -0.62
v -8 -31 -0.62
v -8 -30 -0.62
v -7 -30 -0.62
v -8 -32 -0.64
v -9 -32 -0.64
v -9 -31 -0.64
v -8 -31 -0.64
v -7 -32 -0.64
v -8 -32 -0.64
v -8 -31 -0.64
v -7 -31 -0.64
v -8 -33 -0.66
v -9 -33 -0.66
v -9 -32 -0.66
v -8 -32 -0.66
v -7 -33 -0.66
v -8 -33 -0.66
v -8 -32 -0.66
v -7 -32 -0.66
v -10 -34 -0.68
v -11 -34 -0.68
v -11 -33 -0.68
v -10 -33 -0.68
v -9 -34 -0.68
v -10 -34 -0.68
v -10 -33 -0.68
v -9 -33 -0.68
v -8 -34 -0.68
v -9 -34 -0.68
v -9 -33 -0.68
v -8 -33 -0.68
v -7 -34 -0.68
v -8 -34 -0.68
v -8 -33 -0.68
v -7 -33 -0.68
v -10 -35 -0.7
v -11 -35 -0.7
v -11 -34 -0.7
v -10 -34 -0.7
v -9 -35 -0.7
v -10 -35 -0.7
v -10 -34 -0.7
v -9 -34 -0.7
v -8 -35 -0.7
v -9 -35 -0.7
v -9 -34 -0.7
v -8 -34 -0.7
v -7 -35 -0.7
v -8 -35 -0.7
v -8 -34 -0.7
v -7 -34 -0.7
v -8 -36 -0.72
v -9 -36 -0.72
v -9 -35 -0.72
v -8 -35 -0.72
v -7 -36 -0.72
v -8 -36 -0.72
v -8 -35 -0.72
v -7 -35 -0.72
v -25 -37 -0.74
v -26 -37 -0.74
v -26 -36 -0.74
v -25 -36 -0.74
v -24 -37 -0.74
v -25 -37 -0.74
v -25 -36 -0.74
v -24 -36 -0.74
v -10 -37 -0.74
v -11 -37 -0.74
v -11 -36 -0.74
v -10 -36 -0.74
v -9 -37 -0.74
v -10 -37 -0.74
v -10 -36 -0.74
v -9 -36 -0.74
v -8 -37 -0.74
v -9 -37 -0.74
v -9 -36 -0.74
v -8 -36 -0.74
v -7 -37 -0.74
v -8 -37 -0.74
v -8 -36 -0.74
v -7 -36 -0.74
v -25 -38 -0.76
v -26 -38 -0.76
v -26 -37 -0.76
v -25 -37 -0.76
v -24 -38 -0.76
v -25 -38 -0.76
v -25 -37 -0.76
v -24 -37 -0.76
v -10 -38 -0.76
v -11 -38 -0.76
v -11 -37 -0.76
v -10 -37 -0.76
v -9 -38 -0.76
v -10 -38 -0.76
v -10 -37 -0.76
v -9 -37 -0.76
v -8 -38 -0.76
v -9 -38 -0.76
v -9 -37 -0.76
v -8 -37 -0.76
v -7 -38 -0.76
v -8 -38 -0.76
v -8 -37 -0.76
v -7 -37 -0.76
v -25 -39 -0.78
v -26 -39 -0.78
v -26 -38 -0.78
v -25 -38 -0.78
v -24 -39 -0.78
v -25 -39 -0.78
v -25 -38 -0.78
v -24 -38 -0.78

# Texture cooridinates (Count = 56)
vt 0.1580579 0.4524715
vt 0.1745868 0.4524715
vt 0.1745868 0.4828897
vt 0.1580579 0.4828897
vt 0.1229339 0.4524715
vt 0.1394628 0.4524715
vt 0.1394628 0.4828897
vt 0.1229339 0.4828897
vt 0.5268595 0.6787072
vt 0.5433884 0.6787072
vt 0.5433884 0.7091255
vt 0.5268595 0.7091255
vt 0.1404959 0.4524715
vt 0.1570248 0.4524715
vt 0.1570248 0.4828897
vt 0.1404959 0.4828897
vt 0.01756198 0.7756654
vt 0.03409091 0.7756654
vt 0.03409091 0.8060837
vt 0.01756198 0.8060837
vt 0 0.7756654
vt 0.01652892 0.7756654
vt 0.01652892 0.8060837
vt 0 0.8060837
vt 0.01756198 0.743346
vt 0.03409091 0.743346
vt 0.03409091 0.7737643
vt 0.01756198 0.7737643
vt 0 0.743346
vt 0.01652892 0.743346
vt 0.01652892 0.7737643
vt 0 0.7737643
vt 0.1580579 0.4847909
vt 0.1745868 0.4847909
vt 0.1745868 0.5152091
vt 0.1580579 0.5152091
vt 0.1229339 0.4847909
vt 0.1394628 0.4847909
vt 0.1394628 0.5152091
vt 0.1229339 0.5152091
vt 0.01756198 0.6787072
vt 0.03409091 0.6787072
vt 0.03409091 0.7091255
vt 0.01756198 0.7091255
vt 0 0.6787072
vt 0.01652892 0.6787072
vt 0.01652892 0.7091255
vt 0 0.7091255
vt 0.01756198 0.6463878
vt 0.03409091 0.6463878
vt 0.03409091 0.6768061
vt 0.01756198 0.6768061
vt 0 0.6463878
vt 0.01652892 0.6463878
vt 0.01652892 0.6768061
vt 0 0.6768061

# Normal
vn 0 0 -1

# Mesh description
g Castle_mesh_0010

# Faces
f 1/1/1 2/2/1 3/3/1 4/4/1
f 5/5/1 6/6/1 7/7/1 8/8/1
f 9/1/1 10/2/1 11/3/1 12/4/1
f 13/5/1 14/6/1 15/7/1 16/8/1
f 17/9/1 18/10/1 19/11/1 20/12/1
f 21/1/1 22/2/1 23/3/1 24/4/1
f 25/5/1 26/6/1 27/7/1 28/8/1
f 29/1/1 30/2/1 31/3/1 32/4/1
f 33/5/1 34/6/1 35/7/1 36/8/1
f 37/1/1 38/2/1 39/3/1 40/4/1
f 41/5/1 42/6/1 43/7/1 44/8/1
f 45/1/1 46/2/1 47/3/1 48/4/1
f 49/5/1 50/6/1 51/7/1 52/8/1
f 53/1/1 54/2/1 55/3/1 56/4/1
f 57/13/1 58/14/1 59/15/1 60/16/1
f 61/1/1 62/2/1 63/3/1 64/4/1
f 65/13/1 66/14/1 67/15/1 68/16/1
f 69/1/1 70/2/1 71/3/1 72/4/1
f 73/5/1 74/6/1 75/7/1 76/8/1
f 77/17/1 78/18/1 79/19/1 80/20/1
f 81/21/1 82/22/1 83/23/1 84/24/1
f 85/1/1 86/2/1 87/3/1 88/4/1
f 89/5/1 90/6/1 91/7/1 92/8/1
f 93/25/1 94/26/1 95/27/1 96/28/1
f 97/29/1 98/30/1 99/31/1 100/32/1
f 101/1/1 102/2/1 103/3/1 104/4/1
f 105/5/1 106/6/1 107/7/1 108/8/1
f 109/1/1 110/2/1 111/3/1 112/4/1
f 113/5/1 114/6/1 115/7/1 116/8/1
f 117/33/1 118/34/1 119/35/1 120/36/1
f 121/37/1 122/38/1 123/39/1 124/40/1
f 125/41/1 126/42/1 127/43/1 128/44/1
f 129/45/1 130/46/1 131/47/1 132/48/1
f 133/1/1 134/2/1 135/3/1 136/4/1
f 137/5/1 138/6/1 139/7/1 140/8/1
f 141/1/1 142/2/1 143/3/1 144/4/1
f 145/5/1 146/6/1 147/7/1 148/8/1
f 149/49/1 150/50/1 151/51/1 152/52/1
f 153/53/1 154/54/1 155/55/1 156/56/1
f 157/1/1 158/2/1 159/3/1 160/4/1
f 161/5/1 162/6/1 163/7/1 164/8/1
f 165/13/1 166/14/1 167/15/1 168/16/1
f 169/13/1 170/14/1 171/15/1 172/16/1

