# Tiled2Unity generated file. Do not modify by hand.
# Wavefront file for 'Castle_mesh_0008.obj'

# Vertices (Count = 180)
v -29 -40 -0.8
v -30 -40 -0.8
v -30 -39 -0.8
v -29 -39 -0.8
v -28 -40 -0.8
v -29 -40 -0.8
v -29 -39 -0.8
v -28 -39 -0.8
v -27 -40 -0.8
v -28 -40 -0.8
v -28 -39 -0.8
v -27 -39 -0.8
v -26 -40 -0.8
v -27 -40 -0.8
v -27 -39 -0.8
v -26 -39 -0.8
v -25 -40 -0.8
v -26 -40 -0.8
v -26 -39 -0.8
v -25 -39 -0.8
v -24 -40 -0.8
v -25 -40 -0.8
v -25 -39 -0.8
v -24 -39 -0.8
v -23 -40 -0.8
v -24 -40 -0.8
v -24 -39 -0.8
v -23 -39 -0.8
v -22 -40 -0.8
v -23 -40 -0.8
v -23 -39 -0.8
v -22 -39 -0.8
v -21 -40 -0.8
v -22 -40 -0.8
v -22 -39 -0.8
v -21 -39 -0.8
v -20 -40 -0.8
v -21 -40 -0.8
v -21 -39 -0.8
v -20 -39 -0.8
v -19 -40 -0.8
v -20 -40 -0.8
v -20 -39 -0.8
v -19 -39 -0.8
v -18 -40 -0.8
v -19 -40 -0.8
v -19 -39 -0.8
v -18 -39 -0.8
v -17 -40 -0.8
v -18 -40 -0.8
v -18 -39 -0.8
v -17 -39 -0.8
v -16 -40 -0.8
v -17 -40 -0.8
v -17 -39 -0.8
v -16 -39 -0.8
v -15 -40 -0.8
v -16 -40 -0.8
v -16 -39 -0.8
v -15 -39 -0.8
v -29 -41 -0.82
v -30 -41 -0.82
v -30 -40 -0.82
v -29 -40 -0.82
v -28 -41 -0.82
v -29 -41 -0.82
v -29 -40 -0.82
v -28 -40 -0.82
v -27 -41 -0.82
v -28 -41 -0.82
v -28 -40 -0.82
v -27 -40 -0.82
v -26 -41 -0.82
v -27 -41 -0.82
v -27 -40 -0.82
v -26 -40 -0.82
v -25 -41 -0.82
v -26 -41 -0.82
v -26 -40 -0.82
v -25 -40 -0.82
v -24 -41 -0.82
v -25 -41 -0.82
v -25 -40 -0.82
v -24 -40 -0.82
v -23 -41 -0.82
v -24 -41 -0.82
v -24 -40 -0.82
v -23 -40 -0.82
v -22 -41 -0.82
v -23 -41 -0.82
v -23 -40 -0.82
v -22 -40 -0.82
v -21 -41 -0.82
v -22 -41 -0.82
v -22 -40 -0.82
v -21 -40 -0.82
v -20 -41 -0.82
v -21 -41 -0.82
v -21 -40 -0.82
v -20 -40 -0.82
v -19 -41 -0.82
v -20 -41 -0.82
v -20 -40 -0.82
v -19 -40 -0.82
v -18 -41 -0.82
v -19 -41 -0.82
v -19 -40 -0.82
v -18 -40 -0.82
v -17 -41 -0.82
v -18 -41 -0.82
v -18 -40 -0.82
v -17 -40 -0.82
v -16 -41 -0.82
v -17 -41 -0.82
v -17 -40 -0.82
v -16 -40 -0.82
v -15 -41 -0.82
v -16 -41 -0.82
v -16 -40 -0.82
v -15 -40 -0.82
v -29 -42 -0.84
v -30 -42 -0.84
v -30 -41 -0.84
v -29 -41 -0.84
v -28 -42 -0.84
v -29 -42 -0.84
v -29 -41 -0.84
v -28 -41 -0.84
v -27 -42 -0.84
v -28 -42 -0.84
v -28 -41 -0.84
v -27 -41 -0.84
v -26 -42 -0.84
v -27 -42 -0.84
v -27 -41 -0.84
v -26 -41 -0.84
v -25 -42 -0.84
v -26 -42 -0.84
v -26 -41 -0.84
v -25 -41 -0.84
v -24 -42 -0.84
v -25 -42 -0.84
v -25 -41 -0.84
v -24 -41 -0.84
v -23 -42 -0.84
v -24 -42 -0.84
v -24 -41 -0.84
v -23 -41 -0.84
v -22 -42 -0.84
v -23 -42 -0.84
v -23 -41 -0.84
v -22 -41 -0.84
v -21 -42 -0.84
v -22 -42 -0.84
v -22 -41 -0.84
v -21 -41 -0.84
v -20 -42 -0.84
v -21 -42 -0.84
v -21 -41 -0.84
v -20 -41 -0.84
v -19 -42 -0.84
v -20 -42 -0.84
v -20 -41 -0.84
v -19 -41 -0.84
v -18 -42 -0.84
v -19 -42 -0.84
v -19 -41 -0.84
v -18 -41 -0.84
v -17 -42 -0.84
v -18 -42 -0.84
v -18 -41 -0.84
v -17 -41 -0.84
v -16 -42 -0.84
v -17 -42 -0.84
v -17 -41 -0.84
v -16 -41 -0.84
v -15 -42 -0.84
v -16 -42 -0.84
v -16 -41 -0.84
v -15 -41 -0.84

# Texture cooridinates (Count = 16)
vt 0.1580579 0.4847909
vt 0.1745868 0.4847909
vt 0.1745868 0.5152091
vt 0.1580579 0.5152091
vt 0.1404959 0.4847909
vt 0.1570248 0.4847909
vt 0.1570248 0.5152091
vt 0.1404959 0.5152091
vt 0.1404959 0.4524715
vt 0.1570248 0.4524715
vt 0.1570248 0.4828897
vt 0.1404959 0.4828897
vt 0.1580579 0.4524715
vt 0.1745868 0.4524715
vt 0.1745868 0.4828897
vt 0.1580579 0.4828897

# Normal
vn 0 0 -1

# Mesh description
g Castle_mesh_0008

# Faces
f 1/1/1 2/2/1 3/3/1 4/4/1
f 5/5/1 6/6/1 7/7/1 8/8/1
f 9/5/1 10/6/1 11/7/1 12/8/1
f 13/5/1 14/6/1 15/7/1 16/8/1
f 17/9/1 18/10/1 19/11/1 20/12/1
f 21/9/1 22/10/1 23/11/1 24/12/1
f 25/5/1 26/6/1 27/7/1 28/8/1
f 29/5/1 30/6/1 31/7/1 32/8/1
f 33/5/1 34/6/1 35/7/1 36/8/1
f 37/5/1 38/6/1 39/7/1 40/8/1
f 41/5/1 42/6/1 43/7/1 44/8/1
f 45/5/1 46/6/1 47/7/1 48/8/1
f 49/5/1 50/6/1 51/7/1 52/8/1
f 53/5/1 54/6/1 55/7/1 56/8/1
f 57/5/1 58/6/1 59/7/1 60/8/1
f 61/13/1 62/14/1 63/15/1 64/16/1
f 65/9/1 66/10/1 67/11/1 68/12/1
f 69/9/1 70/10/1 71/11/1 72/12/1
f 73/9/1 74/10/1 75/11/1 76/12/1
f 77/9/1 78/10/1 79/11/1 80/12/1
f 81/9/1 82/10/1 83/11/1 84/12/1
f 85/9/1 86/10/1 87/11/1 88/12/1
f 89/9/1 90/10/1 91/11/1 92/12/1
f 93/9/1 94/10/1 95/11/1 96/12/1
f 97/9/1 98/10/1 99/11/1 100/12/1
f 101/9/1 102/10/1 103/11/1 104/12/1
f 105/9/1 106/10/1 107/11/1 108/12/1
f 109/9/1 110/10/1 111/11/1 112/12/1
f 113/9/1 114/10/1 115/11/1 116/12/1
f 117/9/1 118/10/1 119/11/1 120/12/1
f 121/13/1 122/14/1 123/15/1 124/16/1
f 125/9/1 126/10/1 127/11/1 128/12/1
f 129/9/1 130/10/1 131/11/1 132/12/1
f 133/9/1 134/10/1 135/11/1 136/12/1
f 137/9/1 138/10/1 139/11/1 140/12/1
f 141/9/1 142/10/1 143/11/1 144/12/1
f 145/9/1 146/10/1 147/11/1 148/12/1
f 149/9/1 150/10/1 151/11/1 152/12/1
f 153/9/1 154/10/1 155/11/1 156/12/1
f 157/9/1 158/10/1 159/11/1 160/12/1
f 161/9/1 162/10/1 163/11/1 164/12/1
f 165/9/1 166/10/1 167/11/1 168/12/1
f 169/9/1 170/10/1 171/11/1 172/12/1
f 173/9/1 174/10/1 175/11/1 176/12/1
f 177/9/1 178/10/1 179/11/1 180/12/1

