# Tiled2Unity generated file. Do not modify by hand.
# Wavefront file for 'Main_World_mesh_0012.obj'

# Vertices (Count = 184)
v -113 -67 -0.4466667
v -114 -67 -0.4466667
v -114 -66 -0.4466667
v -113 -66 -0.4466667
v -112 -67 -0.4466667
v -113 -67 -0.4466667
v -113 -66 -0.4466667
v -112 -66 -0.4466667
v -113 -68 -0.4533333
v -114 -68 -0.4533333
v -114 -67 -0.4533333
v -113 -67 -0.4533333
v -112 -68 -0.4533333
v -113 -68 -0.4533333
v -113 -67 -0.4533333
v -112 -67 -0.4533333
v -119 -69 -0.46
v -120 -69 -0.46
v -120 -68 -0.46
v -119 -68 -0.46
v -113 -69 -0.46
v -114 -69 -0.46
v -114 -68 -0.46
v -113 -68 -0.46
v -112 -69 -0.46
v -113 -69 -0.46
v -113 -68 -0.46
v -112 -68 -0.46
v -106 -69 -0.46
v -107 -69 -0.46
v -107 -68 -0.46
v -106 -68 -0.46
v -113 -70 -0.4666667
v -114 -70 -0.4666667
v -114 -69 -0.4666667
v -113 -69 -0.4666667
v -112 -70 -0.4666667
v -113 -70 -0.4666667
v -113 -69 -0.4666667
v -112 -69 -0.4666667
v -113 -71 -0.4733333
v -114 -71 -0.4733333
v -114 -70 -0.4733333
v -113 -70 -0.4733333
v -112 -71 -0.4733333
v -113 -71 -0.4733333
v -113 -70 -0.4733333
v -112 -70 -0.4733333
v -119 -72 -0.48
v -120 -72 -0.48
v -120 -71 -0.48
v -119 -71 -0.48
v -113 -72 -0.48
v -114 -72 -0.48
v -114 -71 -0.48
v -113 -71 -0.48
v -112 -72 -0.48
v -113 -72 -0.48
v -113 -71 -0.48
v -112 -71 -0.48
v -106 -72 -0.48
v -107 -72 -0.48
v -107 -71 -0.48
v -106 -71 -0.48
v -113 -73 -0.4866667
v -114 -73 -0.4866667
v -114 -72 -0.4866667
v -113 -72 -0.4866667
v -112 -73 -0.4866667
v -113 -73 -0.4866667
v -113 -72 -0.4866667
v -112 -72 -0.4866667
v -113 -74 -0.4933333
v -114 -74 -0.4933333
v -114 -73 -0.4933333
v -113 -73 -0.4933333
v -112 -74 -0.4933333
v -113 -74 -0.4933333
v -113 -73 -0.4933333
v -112 -73 -0.4933333
v -119 -75 -0.5
v -120 -75 -0.5
v -120 -74 -0.5
v -119 -74 -0.5
v -114 -75 -0.5
v -115 -75 -0.5
v -115 -74 -0.5
v -114 -74 -0.5
v -113 -75 -0.5
v -114 -75 -0.5
v -114 -74 -0.5
v -113 -74 -0.5
v -112 -75 -0.5
v -113 -75 -0.5
v -113 -74 -0.5
v -112 -74 -0.5
v -111 -75 -0.5
v -112 -75 -0.5
v -112 -74 -0.5
v -111 -74 -0.5
v -106 -75 -0.5
v -107 -75 -0.5
v -107 -74 -0.5
v -106 -74 -0.5
v -114 -76 -0.5066667
v -115 -76 -0.5066667
v -115 -75 -0.5066667
v -114 -75 -0.5066667
v -113 -76 -0.5066667
v -114 -76 -0.5066667
v -114 -75 -0.5066667
v -113 -75 -0.5066667
v -112 -76 -0.5066667
v -113 -76 -0.5066667
v -113 -75 -0.5066667
v -112 -75 -0.5066667
v -111 -76 -0.5066667
v -112 -76 -0.5066667
v -112 -75 -0.5066667
v -111 -75 -0.5066667
v -114 -77 -0.5133333
v -115 -77 -0.5133333
v -115 -76 -0.5133333
v -114 -76 -0.5133333
v -113 -77 -0.5133333
v -114 -77 -0.5133333
v -114 -76 -0.5133333
v -113 -76 -0.5133333
v -112 -77 -0.5133333
v -113 -77 -0.5133333
v -113 -76 -0.5133333
v -112 -76 -0.5133333
v -111 -77 -0.5133333
v -112 -77 -0.5133333
v -112 -76 -0.5133333
v -111 -76 -0.5133333
v -119 -78 -0.52
v -120 -78 -0.52
v -120 -77 -0.52
v -119 -77 -0.52
v -114 -78 -0.52
v -115 -78 -0.52
v -115 -77 -0.52
v -114 -77 -0.52
v -113 -78 -0.52
v -114 -78 -0.52
v -114 -77 -0.52
v -113 -77 -0.52
v -112 -78 -0.52
v -113 -78 -0.52
v -113 -77 -0.52
v -112 -77 -0.52
v -111 -78 -0.52
v -112 -78 -0.52
v -112 -77 -0.52
v -111 -77 -0.52
v -106 -78 -0.52
v -107 -78 -0.52
v -107 -77 -0.52
v -106 -77 -0.52
v -114 -79 -0.5266666
v -115 -79 -0.5266666
v -115 -78 -0.5266666
v -114 -78 -0.5266666
v -113 -79 -0.5266666
v -114 -79 -0.5266666
v -114 -78 -0.5266666
v -113 -78 -0.5266666
v -112 -79 -0.5266666
v -113 -79 -0.5266666
v -113 -78 -0.5266666
v -112 -78 -0.5266666
v -111 -79 -0.5266666
v -112 -79 -0.5266666
v -112 -78 -0.5266666
v -111 -78 -0.5266666
v -119 -81 -0.54
v -120 -81 -0.54
v -120 -80 -0.54
v -119 -80 -0.54
v -106 -81 -0.54
v -107 -81 -0.54
v -107 -80 -0.54
v -106 -80 -0.54

# Texture cooridinates (Count = 52)
vt 0.5795454 0.5494297
vt 0.5960744 0.5494297
vt 0.5960744 0.5798479
vt 0.5795454 0.5798479
vt 0.5092975 0.5494297
vt 0.5258265 0.5494297
vt 0.5258265 0.5798479
vt 0.5092975 0.5798479
vt 0.5092975 0.3231939
vt 0.5258265 0.3231939
vt 0.5258265 0.3536122
vt 0.5092975 0.3536122
vt 0.5092975 0.3555133
vt 0.5258265 0.3555133
vt 0.5258265 0.3859316
vt 0.5092975 0.3859316
vt 0.5444215 0.5817491
vt 0.5609504 0.5817491
vt 0.5609504 0.6121673
vt 0.5444215 0.6121673
vt 0.5268595 0.5494297
vt 0.5433884 0.5494297
vt 0.5433884 0.5798479
vt 0.5268595 0.5798479
vt 0.5444215 0.5494297
vt 0.5609504 0.5494297
vt 0.5609504 0.5798479
vt 0.5444215 0.5798479
vt 0.5268595 0.5817491
vt 0.5433884 0.5817491
vt 0.5433884 0.6121673
vt 0.5268595 0.6121673
vt 0.4917355 0.4201521
vt 0.5082645 0.4201521
vt 0.5082645 0.4505703
vt 0.4917355 0.4505703
vt 0.4917355 0.5817491
vt 0.5082645 0.5817491
vt 0.5082645 0.6121673
vt 0.4917355 0.6121673
vt 0.5268595 0.4847909
vt 0.5433884 0.4847909
vt 0.5433884 0.5152091
vt 0.5268595 0.5152091
vt 0.4741735 0.4847909
vt 0.4907025 0.4847909
vt 0.4907025 0.5152091
vt 0.4741735 0.5152091
vt 0.4917355 0.4847909
vt 0.5082645 0.4847909
vt 0.5082645 0.5152091
vt 0.4917355 0.5152091

# Normal
vn 0 0 -1

# Mesh description
g Main_World_mesh_0012

# Faces
f 1/1/1 2/2/1 3/3/1 4/4/1
f 5/1/1 6/2/1 7/3/1 8/4/1
f 9/5/1 10/6/1 11/7/1 12/8/1
f 13/5/1 14/6/1 15/7/1 16/8/1
f 17/9/1 18/10/1 19/11/1 20/12/1
f 21/5/1 22/6/1 23/7/1 24/8/1
f 25/5/1 26/6/1 27/7/1 28/8/1
f 29/13/1 30/14/1 31/15/1 32/16/1
f 33/5/1 34/6/1 35/7/1 36/8/1
f 37/5/1 38/6/1 39/7/1 40/8/1
f 41/5/1 42/6/1 43/7/1 44/8/1
f 45/5/1 46/6/1 47/7/1 48/8/1
f 49/9/1 50/10/1 51/11/1 52/12/1
f 53/5/1 54/6/1 55/7/1 56/8/1
f 57/5/1 58/6/1 59/7/1 60/8/1
f 61/13/1 62/14/1 63/15/1 64/16/1
f 65/5/1 66/6/1 67/7/1 68/8/1
f 69/5/1 70/6/1 71/7/1 72/8/1
f 73/5/1 74/6/1 75/7/1 76/8/1
f 77/5/1 78/6/1 79/7/1 80/8/1
f 81/9/1 82/10/1 83/11/1 84/12/1
f 85/17/1 86/18/1 87/19/1 88/20/1
f 89/21/1 90/22/1 91/23/1 92/24/1
f 93/25/1 94/26/1 95/27/1 96/28/1
f 97/29/1 98/30/1 99/31/1 100/32/1
f 101/13/1 102/14/1 103/15/1 104/16/1
f 105/5/1 106/6/1 107/7/1 108/8/1
f 109/33/1 110/34/1 111/35/1 112/36/1
f 113/33/1 114/34/1 115/35/1 116/36/1
f 117/5/1 118/6/1 119/7/1 120/8/1
f 121/5/1 122/6/1 123/7/1 124/8/1
f 125/33/1 126/34/1 127/35/1 128/36/1
f 129/33/1 130/34/1 131/35/1 132/36/1
f 133/5/1 134/6/1 135/7/1 136/8/1
f 137/9/1 138/10/1 139/11/1 140/12/1
f 141/25/1 142/26/1 143/27/1 144/28/1
f 145/37/1 146/38/1 147/39/1 148/40/1
f 149/37/1 150/38/1 151/39/1 152/40/1
f 153/21/1 154/22/1 155/23/1 156/24/1
f 157/13/1 158/14/1 159/15/1 160/16/1
f 161/41/1 162/42/1 163/43/1 164/44/1
f 165/45/1 166/46/1 167/47/1 168/48/1
f 169/45/1 170/46/1 171/47/1 172/48/1
f 173/49/1 174/50/1 175/51/1 176/52/1
f 177/9/1 178/10/1 179/11/1 180/12/1
f 181/13/1 182/14/1 183/15/1 184/16/1

