# Tiled2Unity generated file. Do not modify by hand.
# Wavefront file for 'Main_World_mesh_0013.obj'

# Vertices (Count = 8)
v -122 -95 0
v -123 -95 0
v -123 -94 0
v -122 -94 0
v -121 -95 0
v -122 -95 0
v -122 -94 0
v -121 -94 0

# Texture cooridinates (Count = 8)
vt 0.6146694 0.8079848
vt 0.6311983 0.8079848
vt 0.6311983 0.838403
vt 0.6146694 0.838403
vt 0.5971074 0.8079848
vt 0.6136364 0.8079848
vt 0.6136364 0.838403
vt 0.5971074 0.838403

# Normal
vn 0 0 -1

# Mesh description
g Main_World_mesh_0013

# Faces
f 1/1/1 2/2/1 3/3/1 4/4/1
f 5/5/1 6/6/1 7/7/1 8/8/1

