# Tiled2Unity generated file. Do not modify by hand.
# Wavefront file for 'Main_World_mesh_0011.obj'

# Vertices (Count = 16)
v -87 -78 0
v -88 -78 0
v -88 -77 0
v -87 -77 0
v -86 -78 0
v -87 -78 0
v -87 -77 0
v -86 -77 0
v -85 -94 0
v -86 -94 0
v -86 -93 0
v -85 -93 0
v -84 -94 0
v -85 -94 0
v -85 -93 0
v -84 -93 0

# Texture cooridinates (Count = 12)
vt 0.5971074 0.904943
vt 0.6136364 0.904943
vt 0.6136364 0.9353612
vt 0.5971074 0.9353612
vt 0.6146694 0.8079848
vt 0.6311983 0.8079848
vt 0.6311983 0.838403
vt 0.6146694 0.838403
vt 0.5971074 0.8079848
vt 0.6136364 0.8079848
vt 0.6136364 0.838403
vt 0.5971074 0.838403

# Normal
vn 0 0 -1

# Mesh description
g Main_World_mesh_0011

# Faces
f 1/1/1 2/2/1 3/3/1 4/4/1
f 5/1/1 6/2/1 7/3/1 8/4/1
f 9/5/1 10/6/1 11/7/1 12/8/1
f 13/9/1 14/10/1 15/11/1 16/12/1

